<svg xmlns="http://www.w3.org/2000/svg" width="322.525" height="333.074" viewBox="0 0 322.525 333.074">
  <g id="blog" transform="translate(-5383 -2851)">
    <rect id="Rectangle_320" data-name="Rectangle 320" width="65.249" height="48.937" transform="translate(5387.89 2851)" fill="#e6e6e6"/>
    <rect id="Rectangle_321" data-name="Rectangle 321" width="48.937" height="3.262" transform="translate(5396.046 2864.05)" fill="#fff"/>
    <rect id="Rectangle_322" data-name="Rectangle 322" width="48.937" height="3.262" transform="translate(5396.046 2873.837)" fill="#fff"/>
    <rect id="Rectangle_323" data-name="Rectangle 323" width="48.937" height="3.262" transform="translate(5396.046 2883.624)" fill="#fff"/>
    <path id="Path_1105" data-name="Path 1105" d="M362.061,469.567h-.084c-3.126,0-6.29-.093-9.4-.277l.046-.786c3.1.183,6.247.276,9.357.276h.084Zm9.49-.287-.047-.786c3.132-.188,6.3-.473,9.406-.848l.095.782c-3.126.378-6.306.664-9.451.853Zm-28.431-.833c-3.13-.374-6.288-.848-9.387-1.41l.141-.776c3.083.559,6.225,1.031,9.34,1.406Zm47.27-1.441-.142-.776c3.085-.562,6.192-1.228,9.235-1.977l.188.765c-3.056.753-6.181,1.421-9.282,1.987Zm-65.942-1.949c-3.061-.749-6.139-1.6-9.147-2.537l.234-.753c3,.93,6.056,1.779,9.1,2.525Zm84.368-2.588-.235-.753c2.989-.932,5.991-1.969,8.925-3.084l.28.737c-2.948,1.121-5.966,2.165-8.97,3.1Zm-102.509-3.045c-2.948-1.116-5.9-2.34-8.785-3.637l.323-.719c2.867,1.29,5.807,2.506,8.742,3.618Zm120.235-3.687-.324-.719c2.854-1.284,5.706-2.679,8.477-4.137l.367.7c-2.786,1.468-5.652,2.867-8.52,4.161Zm-137.565-4.113c-2.795-1.467-5.579-3.039-8.275-4.672l.408-.672c2.683,1.624,5.453,3.189,8.234,4.65Zm154.343-4.71-.408-.672c2.68-1.624,5.346-3.351,7.922-5.132l.448.648C448.691,443.545,446.01,445.281,443.32,446.913ZM272.73,441.79c-2.6-1.794-5.169-3.689-7.649-5.632l.489-.62c2.467,1.935,5.028,3.82,7.611,5.6Zm186.191-5.664-.489-.62c2.473-1.941,4.913-3.973,7.252-6.052l.523.589c-2.351,2.085-4.8,4.13-7.288,6.081Zm-201.135-6.052c-2.36-2.091-4.687-4.279-6.915-6.507l.557-.557c2.217,2.215,4.532,4.394,6.88,6.474Zm215.334-6.541-.557-.557c2.22-2.22,4.4-4.534,6.48-6.878l.589.523c-2.088,2.355-4.279,4.681-6.51,6.911Zm-228.759-6.876c-2.093-2.359-4.14-4.81-6.083-7.285l.619-.489c1.934,2.462,3.973,4.9,6.052,7.249Zm241.352-7.32-.62-.489c1.941-2.474,3.827-5.034,5.608-7.608l.648.448C489.56,404.278,487.664,406.851,485.713,409.337Zm-253.072-7.595c-1.794-2.592-3.531-5.269-5.162-7.958l.672-.41c1.623,2.676,3.351,5.34,5.135,7.919Zm263.874-8.024-.672-.408c1.627-2.685,3.193-5.455,4.653-8.231l.7.367C499.725,388.235,498.154,391.019,496.516,393.719Zm-273.708-8.188c-1.467-2.786-2.868-5.652-4.162-8.518l.718-.325c1.289,2.852,2.682,5.7,4.142,8.475ZM505.36,376.9l-.719-.323c1.294-2.873,2.512-5.811,3.623-8.742l.737.28c-1.117,2.943-2.342,5.9-3.641,8.783Zm-290.353-8.641c-1.121-2.946-2.166-5.964-3.1-8.971l.752-.235c.935,2.991,1.974,5.994,3.089,8.925Zm297.1-9.133-.753-.234c.932-3,1.783-6.056,2.53-9.1l.765.188c-.751,3.059-1.606,6.136-2.542,9.146ZM209.35,350.147c-.754-3.056-1.424-6.178-1.992-9.281l.775-.142c.565,3.087,1.232,6.194,1.982,9.234ZM516.629,340.7l-.776-.142c.56-3.083,1.034-6.224,1.406-9.338l.782.094c-.373,3.129-.849,6.289-1.412,9.385Zm-310.7-9.217c-.378-3.125-.667-6.3-.856-9.453l.786-.048c.189,3.132.477,6.3.856,9.405Zm312.96-9.623-.786-.046c.183-3.126.28-6.3.28-9.441v-.333h.788v.333C519.174,315.525,519.079,318.717,518.892,321.858Zm-313.323-9.32h-.788v-.167c0-3.1.091-6.235.271-9.32l.786.046c-.179,3.069-.27,6.189-.27,9.274ZM518.085,302.6c-.193-3.135-.484-6.3-.863-9.4l.782-.1c.381,3.121.672,6.3.868,9.452Zm-311.412-8.907-.782-.093c.373-3.13.845-6.288,1.406-9.388l.776.14C207.514,287.434,207.043,290.577,206.673,293.691Zm309.119-9.834c-.57-3.091-1.24-6.2-1.993-9.231l.765-.189c.756,3.05,1.43,6.174,2,9.279ZM210.035,275.11l-.765-.187c.748-3.056,1.6-6.137,2.533-9.149l.753.233c-.929,3-1.776,6.059-2.52,9.1Zm301.215-9.58c-.937-2.992-1.98-5.994-3.1-8.925l.734-.281c1.124,2.943,2.173,5.961,3.118,8.968Zm-295.618-8.472-.737-.279c1.116-2.949,2.338-5.905,3.632-8.787l.719.323C217.957,251.183,216.741,254.124,215.632,257.058ZM504.524,247.9c-1.291-2.851-2.69-5.7-4.151-8.471l.7-.367c1.471,2.783,2.873,5.648,4.171,8.514Zm-281.142-8.092-.7-.367c1.462-2.788,3.033-5.573,4.668-8.278l.672.408C226.4,234.266,224.838,237.037,223.382,239.812Zm272.332-8.586c-1.626-2.673-3.357-5.335-5.145-7.913l.648-.449c1.8,2.591,3.536,5.267,5.17,7.954Zm-262.558-7.589-.649-.448c1.789-2.591,3.682-5.165,5.628-7.652l.62.485C236.825,218.5,234.938,221.058,233.157,223.637Zm251.8-7.916c-1.941-2.465-3.981-4.9-6.061-7.243l.589-.523c2.091,2.352,4.14,4.8,6.09,7.279Zm-240.15-6.958-.59-.523c2.088-2.36,4.279-4.687,6.5-6.917l.558.556C249.06,204.1,246.883,206.414,244.806,208.763Zm227.606-7.152c-2.226-2.218-4.543-4.394-6.888-6.467l.521-.59c2.356,2.083,4.686,4.27,6.922,6.5ZM258.146,195.4l-.523-.589c2.352-2.089,4.8-4.137,7.282-6.087l.489.619C262.927,191.279,260.487,193.317,258.146,195.4Zm200.114-6.3c-2.469-1.932-5.032-3.814-7.617-5.6l.448-.649c2.6,1.79,5.173,3.683,7.654,5.624Zm-185.275-5.372-.449-.648c2.589-1.794,5.266-3.533,7.957-5.166l.409.672c-2.677,1.625-5.34,3.355-7.917,5.141ZM442.7,178.376c-2.69-1.624-5.461-3.184-8.238-4.64l.367-.7c2.791,1.463,5.577,3.031,8.28,4.663Zm-153.59-4.44-.367-.7c2.784-1.467,5.65-2.873,8.516-4.167l.325.718c-2.852,1.29-5.7,2.685-8.473,4.146Zm136.848-4.33c-2.868-1.284-5.807-2.5-8.745-3.607l.279-.737c2.95,1.114,5.906,2.334,8.789,3.627Zm-119.667-3.438-.281-.734c2.948-1.123,5.966-2.169,8.97-3.109l.235.752c-2.992.932-5.994,1.973-8.927,3.091Zm101.971-3.24c-3-.927-6.059-1.773-9.1-2.515l.187-.765c3.056.746,6.138,1.6,9.15,2.528Zm-83.951-2.4-.19-.765c3.06-.757,6.183-1.429,9.28-2l.142.775c-3.082.565-6.188,1.234-9.231,1.987Zm65.608-2.078c-3.08-.556-6.222-1.025-9.341-1.394l.092-.782c3.135.371,6.293.842,9.389,1.4Zm-47.039-1.334-.1-.782c3.123-.38,6.3-.672,9.452-.863l.048.786c-3.134.191-6.3.48-9.4.856Zm28.288-.888c-3.043-.176-6.135-.265-9.191-.265h-.251v-.788h.251c3.071,0,6.18.09,9.237.267Z" transform="translate(5184.943 2701.938)" fill="#fff"/>
    <rect id="Rectangle_316" data-name="Rectangle 316" width="93.414" height="70.061" transform="translate(5612.111 3114.013)" fill="#f9a826"/>
    <rect id="Rectangle_317" data-name="Rectangle 317" width="70.061" height="4.671" transform="translate(5623.788 3132.696)" fill="#fff"/>
    <rect id="Rectangle_318" data-name="Rectangle 318" width="70.061" height="4.671" transform="translate(5623.788 3146.708)" fill="#fff"/>
    <rect id="Rectangle_319" data-name="Rectangle 319" width="70.061" height="4.671" transform="translate(5623.788 3160.72)" fill="#fff"/>
    <path id="Union_7" data-name="Union 7" d="M4.36,23.28H0V0H31.04V23.28H9.269L6.814,28.188Z" transform="translate(5495.621 2965.392)" fill="#89c5cc"/>
    <rect id="Rectangle_325" data-name="Rectangle 325" width="23.28" height="1.552" transform="translate(5499.501 2971.6)" fill="#fff"/>
    <rect id="Rectangle_326" data-name="Rectangle 326" width="23.28" height="1.552" transform="translate(5499.501 2976.256)" fill="#fff"/>
    <rect id="Rectangle_327" data-name="Rectangle 327" width="23.28" height="1.552" transform="translate(5499.501 2980.912)" fill="#fff"/>
    <path id="Subtraction_1" data-name="Subtraction 1" d="M1207.887-3111.737H1030V-3245h177.887Zm-176.053-131.429v129.595h174.219v-129.595Z" transform="translate(4428.189 6192.585)" fill="#fff"/>
    <rect id="Rectangle_341" data-name="Rectangle 341" width="65.249" height="48.937" transform="translate(5383 3102.243)" fill="#e6e6e6"/>
    <rect id="Rectangle_342" data-name="Rectangle 342" width="48.937" height="3.262" transform="translate(5391.156 3115.293)" fill="#fff"/>
    <rect id="Rectangle_343" data-name="Rectangle 343" width="48.937" height="3.262" transform="translate(5391.156 3125.079)" fill="#fff"/>
    <rect id="Rectangle_344" data-name="Rectangle 344" width="48.937" height="3.262" transform="translate(5391.156 3134.867)" fill="#fff"/>
    <g id="Group_962" data-name="Group 962" transform="translate(5558.491 2894)">
      <g id="Symbols" transform="translate(59.597)">
        <g id="Head_Front_Short-2" data-name="Head/Front/Short-2" transform="translate(0)">
          <g id="Head" transform="translate(1.814 4.913)">
            <path id="Path_6343" data-name="Path 6343" d="M23.678,24.206c3.234-3.8,5.423-8.448,5.057-13.661C27.681-4.474,6.774-1.17,2.707,6.41S-.877,33.22,4.379,34.574c2.1.54,6.562-.783,11.106-3.523L12.633,51.233H29.477Z" transform="translate(0 0)" fill="#b28b67" fill-rule="evenodd"/>
          </g>
          <path id="Hair" d="M76.786,56.5C78.9,47.095,84.923,40.683,84,36.48a6.376,6.376,0,0,0-4.9-5.228q-2.06-8.334-13.289-7.09C54.583,25.406,47.73,30.069,50.689,40.33c2.721,0,6-.984,10.546.7q2.161.8,3.092,4.976H66.38q2.988-4.953,5.892-3.64t1.32,6.378L74.6,56.5Z" transform="translate(-50 -24)" fill="#191847" fill-rule="evenodd"/>
        </g>
      </g>
      <g id="Symbols-2" data-name="Symbols" transform="translate(11.581 122.118)">
        <g id="Bottom_Standing_Skinny-Jeans" data-name="Bottom/Standing/Skinny-Jeans" transform="translate(0 0)">
          <path id="Leg" d="M185.55,0,160.105,89.291,141.54,155.1H128L147.728,0Z" transform="translate(-100.629 0)" fill="#69a1ac" fill-rule="evenodd"/>
          <path id="Leg-2" data-name="Leg" d="M118.49,0c.588,46.022,2.6,71.123,3.213,75.3s9.962,30.781,28.031,79.8H135.707Q101.2,84.567,97.183,75.3C94.505,69.13,86.238,44.028,73.786,0Z" transform="translate(-26.764)" fill="#89c5cc" fill-rule="evenodd"/>
          <g id="Accessories_Shoe_Flat-Pointy" data-name="Accessories/Shoe/Flat-Pointy" transform="translate(81.412 152.998)">
            <path id="Shoe" d="M42.811,33.738,42.11,19H27.371Q16.888,26.369,0,30.931v2.807H26.669l9.124-1.4v1.4Z" transform="translate(0 -19)" fill="#e4e4e4" fill-rule="evenodd"/>
          </g>
          <g id="Accessories_Shoe_Flat-Pointy-2" data-name="Accessories/Shoe/Flat-Pointy" transform="translate(0 152.998)">
            <path id="Shoe-2" data-name="Shoe" d="M42.811,33.738,42.11,19H27.371Q16.888,26.369,0,30.931v2.807H26.669l9.124-1.4v1.4Z" transform="translate(0 -19)" fill="#e4e4e4" fill-rule="evenodd"/>
          </g>
        </g>
      </g>
      <g id="Symbols-3" data-name="Symbols" transform="translate(0 42.11)">
        <g id="Body_Jacket" data-name="Body/Jacket" transform="translate(0 0)">
          <path id="Skin" d="M68.988,89.122l-19.881,19.4a60.255,60.255,0,0,0-14.22,8.173c-.831,1-1.735,2.922,2.174,2.063s8.06-1.588,8.795-.316-1.43,3.219-.072,4.883q1.358,1.663,9.134-10.585l20.674-12.189Zm88.245,2.735-14.666.058q13.584,43.851,14.666,46.534c1.624,4.024-1.813,10.154-3.282,13.448,4.787,2.142,4.277-5.79,10.315-2.981,5.511,2.564,9.7,7.21,16.071,3.281.783-.483,1.641-2.3-.432-3.723-5.164-3.541-12.605-9.738-13.611-11.778Q164.237,132.524,157.233,91.858Z" transform="translate(-34.163 -26.574)" fill="#b28b67" fill-rule="evenodd"/>
          <path id="Coat-Back" d="M0,90.067l5.955,1.566Q24.98,54,66.673,25.525L49.158,0C20.578,27.988,1.861,57.807,0,90.067Z" transform="translate(89.241 93.467) rotate(175)" fill="#e58b1d" fill-rule="evenodd"/>
          <path id="Shirt" d="M140.94,80.008H90s4.874-44.815,8.032-57.236c3.49-13.723,7.647-9.045,7.647-20.344L121.981,0C134.792,20.6,138.41,45.973,140.94,80.008Z" transform="translate(-33.094 0)" fill="#dde3e9" fill-rule="evenodd"/>
          <path id="Coat-Front" d="M73.128.012,73.121,0H72.057q-1.91.066-5.818.237L62.3,11.494Q61.674,32.081,55,94.47H90.425q-.139,4.309-.459,8.7h26.34Q110.4,36.492,73.14,0Z" transform="translate(16.105 0)" fill="#ff9b21" fill-rule="evenodd"/>
          <path id="Shade" d="M99.3,82.233q-1.512,26.861-7.573,37.033h9.9A185.172,185.172,0,0,0,99.3,82.233Z" transform="translate(4.894 -24.52)" fill="rgba(0,0,0,0.1)" fill-rule="evenodd"/>
          <path id="Light" d="M120.579,100.55l-17.468-8.121v8.121Z" transform="translate(-21.934 -27.56)" fill="rgba(255,255,255,0.2)" fill-rule="evenodd"/>
        </g>
      </g>
    </g>
    <g id="humaaans_sitting-5" data-name="humaaans/sitting-5" transform="translate(5390 2971)">
      <g id="A-Human_Sitting" data-name="A-Human/Sitting" transform="translate(0 0)">
        <g id="Head_Front_Hijab-1" data-name="Head/Front/Hijab-1" transform="translate(48.79 0)">
          <g id="Head-2" data-name="Head" transform="translate(11.457 1.482)">
            <path id="Path_6345" data-name="Path 6345" d="M5.42,22.626C2.4,19.078.351,14.73.693,9.857,1.678-4.182,21.221-1.094,25.023,5.992s3.35,25.059-1.563,26.326c-1.959.505-6.133-.732-10.382-3.293L15.745,47.89H0Z" fill="#ff9b96" fill-rule="evenodd"/>
          </g>
          <g id="Hijab" transform="translate(0)">
            <path id="Front" d="M11.635,1.32c-.361-.215-1.115-.669-1.5-.834C10.047.446,9.413-.006,9.4,0,8.917.162,7.528.759,7.409,1.275c-.018.039-.037.076-.054.108-.2.358-.377.724-.549,1.1-.378.814-.7,1.666-1.016,2.51C5.183,6.633,4.655,8.317,4.171,10c-.493,1.717-.912,3.455-1.381,5.179-.675,2.481-1.538,4.9-2.208,7.382A14.554,14.554,0,0,0,.028,27.38c0,.02,0,.039,0,.059l0,.024q.029.376.083.754c.032.215.064.432.1.648.612-1.22,1.079-2.565,1.575-3.842.049-.125.095-.251.14-.377q.24-.388.488-.772C3.457,22.26,4.5,20.651,5.5,19.008a87.692,87.692,0,0,1,5.7-8.69c.628-.8,1.27-1.591,1.89-2.4q.529-.69,1.029-1.4c.238-.34,1.271-1.527.9-2.239A19.262,19.262,0,0,0,11.635,1.32Z" transform="translate(21.298 1.482)" fill="#2c2c2c" fill-rule="evenodd"/>
            <path id="Turban" d="M31.549,2.027c.351.118.18-.612-.16-.869C29.815-.031,23.8-.463,18.563.624A25.4,25.4,0,0,0,8.175,5.494a17.554,17.554,0,0,0-5.157,8.72,25.339,25.339,0,0,0-.558,10.479c.115.769.362,1.5.5,2.256a17.466,17.466,0,0,0,.511,2.49c.169.505.457,1,.6,1.508a3.466,3.466,0,0,1-.056,1.706,18.631,18.631,0,0,1-.783,2.838c-.518,1.378-1.147,2.669-1.541,4.1-.524,1.9-2.718,8.1-1.115,9.783H31.094c-.768-2.1-3.075-4.563-3.542-6.807-.275-1.322-.406-4.209-.435-4.313-.688-4.741-2.031-7-2.872-7.826s-1.961-1.074-2.019-1.787c-.239-2.948.934-5.772,1.793-8.522,1.024-3.279,1.775-6.638,2.831-9.906C27.318,8.763,29.728,1.415,31.549,2.027Z" fill="#fff" fill-rule="evenodd"/>
            <path id="Shade-2" data-name="Shade" d="M15.89,0c-1.151,3.651-1.4,5.6-1.151,10.59h-.565C13.12,5.881,14.059,1.449,15.18,0ZM.451,9.423C2.6,14.627,3.573,17.7,9.562,21.911l-.462.324C3.155,18.865,1.423,14.846,0,9.64Zm8.811-5.3c.974,7.386,1.258,11.6,6.333,19.684l-.54.165C9.833,16.943,9.005,11.2,8.758,4.168ZM3.657,26.068l.462-.561c6.3,1.974,5.6,6.05,13.539,10.177l-.663.4C10.044,33.217,8.419,27.064,3.657,26.068Z" transform="translate(4.959 5.418)" fill="rgba(0,0,0,0.2)" fill-rule="evenodd"/>
          </g>
        </g>
        <g id="Bottom_Sitting_Skinny-Jeans-1" data-name="Bottom/Sitting/Skinny-Jeans-1" transform="translate(13.67 103.822)">
          <g id="Objects_Seat_Cube" data-name="Objects/Seat/Cube" transform="translate(0 27.553)">
            <g id="Seat">
              <path id="Seat-Stuff" d="M18.121,0H68.8l6.641,81.347H0Z" fill="#c5cfd6" fill-rule="evenodd"/>
              <path id="Seat-Stuff-2" data-name="Seat-Stuff" d="M18.121,0H33.708l9.329,81.347H0Z" fill="rgba(0,0,0,0.1)" fill-rule="evenodd"/>
            </g>
          </g>
          <path id="Skin-2" data-name="Skin" d="M44.528,3.823C49.932.579,59,4.747,58.992,9.388,58.973,23.272,46.3,88.709,45.64,92.846s-7.748,5.229-8.161.013c-.657-8.3-1.877-37.029-.656-50.326.5-5.489,1.046-10.717,1.58-15.38Q28.43,45.163,7.555,78.727L0,75.275q8.9-29.32,14.594-41.4c6.5-13.788,12.6-25.595,15.163-29.754C33.792-2.42,40.816-.137,44.528,3.823Z" transform="translate(82.053 9.793)" fill="#ff9b96" fill-rule="evenodd"/>
          <path id="LegLower" d="M0,73.37,3.358,6.777c2.419-11.515,22.9-6.171,22.891,0-.019,14.01-8.434,62.405-8.44,66.579Z" transform="translate(107.687 5.267) rotate(20)" fill="#69a1ac" fill-rule="evenodd"/>
          <g id="Accessories_Shoe_Flat-Sneaker" data-name="Accessories/Shoe/Flat-Sneaker" transform="translate(82.191 77.195) rotate(30)">
            <path id="shoe-3" data-name="shoe" d="M1.1,3.982A14.086,14.086,0,0,0,0,8.38a32.917,32.917,0,0,0,.591,5.179h37q1.442-4.768-1.665-5.148t-5.163-.687L13.567.057A.656.656,0,0,0,12.7.389l-.007.017L11.588,3.088A11.8,11.8,0,0,1,6.912,4.43,10.588,10.588,0,0,1,2.876,3.25h0A1.312,1.312,0,0,0,1.137,3.9Q1.117,3.938,1.1,3.982Z" transform="translate(0)" fill="#e4e4e4" fill-rule="evenodd"/>
          </g>
          <g id="Accessories_Shoe_Flat-Sneaker-2" data-name="Accessories/Shoe/Flat-Sneaker" transform="translate(116.772 95.341)">
            <path id="shoe-4" data-name="shoe" d="M1.1,3.982A14.086,14.086,0,0,0,0,8.38a32.917,32.917,0,0,0,.591,5.179h37q1.442-4.768-1.665-5.148t-5.163-.687L13.567.057A.656.656,0,0,0,12.7.389l-.007.017L11.587,3.088A11.8,11.8,0,0,1,6.912,4.43,10.588,10.588,0,0,1,2.876,3.25h0A1.312,1.312,0,0,0,1.137,3.9Q1.117,3.938,1.1,3.982Z" transform="translate(0)" fill="#e4e4e4" fill-rule="evenodd"/>
          </g>
          <path id="Leg-and-Butt" d="M112.029,23.9c0,17.429-8.276,58.082-8.282,61.92l-17.808.014q3.91-54.413,2.773-55c-1.138-.586-46.611,4.54-60.25,4.54C8.8,35.376.66,22.974,0,0H38.959c7.933.849,49.309,9.194,64.675,12.063C110.212,13.291,112.029,19.1,112.029,23.9Z" transform="translate(30.833 0)" fill="#89c5cc" fill-rule="evenodd"/>
        </g>
        <g id="Body_Turtle-Neck" data-name="Body/Turtle-Neck" transform="translate(0 31.836)">
          <path id="Skin-3" data-name="Skin" d="M116.333,16.408l18.584,18.129a56.318,56.318,0,0,1,13.291,7.641c.777.937,1.622,2.732-2.032,1.929s-7.534-1.484-8.221-.3,1.337,3.01.068,4.565q-1.269,1.556-8.537-9.893L110.16,27.087ZM25.458,0,39.824.054Q23.412,53.225,22.4,55.733c-1.518,3.762,1.694,9.491,3.068,12.57-4.474,2-4-5.412-9.641-2.787-5.152,2.4-9.07,6.739-15.022,3.067-.732-.451-1.534-2.151.4-3.48,4.827-3.31,11.783-9.1,12.722-11.009Q15.853,50.195,25.458,0Z" transform="translate(0 47.352)" fill="#ff9b96" fill-rule="evenodd"/>
          <path id="Clothes-Back" d="M0,1.464,5.566,0C17.222,30.69,64.838,48.138,68.675,59.656c1.407,4.224-1.507,6.676.212,7.85l-6.875,6.02c-1.37-1.342-3.793,1.545-9.5.173S3.26,38.725,0,1.464Z" transform="translate(69.359 5.144) rotate(5)" fill="#e58b1d" fill-rule="evenodd"/>
          <path id="Clothes-Front" d="M66.941,10.8C66.287,52.622,90.462,63.29,85.077,80.067,80.631,93.921,38.067,108.815,30.7,95.234c-2.981-5.5-4.334-12.146-4.488-19.374Q23.39,84.19,21.747,90.2c-1.889,6.914-9.214,8.014-9.214,10.677l-9.65-2.663C3.538,94.6-1.011,92.835.209,84.75q8.2-54.336,44.052-78.773l.247-3.536a2.624,2.624,0,0,1,2.8-2.435L64.979,1.242a2.624,2.624,0,0,1,2.435,2.8Z" transform="translate(11.833 0)" fill="#f9a826" fill-rule="evenodd"/>
        </g>
      </g>
    </g>
    <g id="Group_41" data-name="Group 41" transform="translate(5426.819 2875.651)">
      <circle id="Ellipse_220" data-name="Ellipse 220" cx="15.443" cy="15.443" r="15.443" transform="translate(0 0)" fill="#ff9b21"/>
      <path id="Path_1106" data-name="Path 1106" d="M432.283,382.7h-5.251v-5.251a1.236,1.236,0,0,0-1.236-1.236h0a1.236,1.236,0,0,0-1.236,1.236V382.7h-5.251a1.236,1.236,0,0,0-1.236,1.236h0a1.236,1.236,0,0,0,1.236,1.236h5.251v5.251a1.236,1.236,0,0,0,1.236,1.236h0a1.236,1.236,0,0,0,1.236-1.236v-5.251h5.251a1.236,1.236,0,0,0,1.235-1.236h0A1.236,1.236,0,0,0,432.283,382.7Z" transform="translate(-410.427 -368.551)" fill="#fff"/>
    </g>
    <path id="Union_8" data-name="Union 8" d="M5.134,5.781H0V33.2H36.555V5.781H10.915L8.025,0Z" transform="translate(5595.046 2947.585) rotate(180)" fill="#89c5cc"/>
    <rect id="Rectangle_325-2" data-name="Rectangle 325" width="27.416" height="1.828" transform="translate(5563.061 2921.699)" fill="#fff"/>
    <rect id="Rectangle_326-2" data-name="Rectangle 326" width="27.416" height="1.828" transform="translate(5563.061 2927.183)" fill="#fff"/>
    <rect id="Rectangle_327-2" data-name="Rectangle 327" width="27.416" height="1.828" transform="translate(5563.061 2932.666)" fill="#fff"/>
  </g>
</svg>
