<svg xmlns="http://www.w3.org/2000/svg" width="96.454" height="126.644" viewBox="0 0 96.454 126.644">
  <g id="Group_959" data-name="Group 959" transform="translate(2124.781 -1205.356)">
    <path id="Path_1138" data-name="Path 1138" d="M542.833,426.928H458.4a4.014,4.014,0,0,1-4.01-4.009V308.294a4.014,4.014,0,0,1,4.01-4.009h84.435a4.014,4.014,0,0,1,4.009,4.009V422.919A4.014,4.014,0,0,1,542.833,426.928Z" transform="translate(-2577.169 903.072)" fill="#fff" stroke="#ccc" stroke-width="4"/>
    <path id="Path_6311" data-name="Path 6311" d="M588.987,193.268a.292.292,0,0,1-.291.291h-.14c-.215-.186-.425-.381-.628-.582h.768A.292.292,0,0,1,588.987,193.268Z" transform="translate(-2636.009 1026.854)" fill="#f2f2f2"/>
    <g id="Group_958" data-name="Group 958" transform="translate(0 2.385)">
      <path id="Path_6312" data-name="Path 6312" d="M432.634,156.977H359.6a1.9,1.9,0,0,0-2.037,1.721v33.433a1.9,1.9,0,0,0,2.037,1.721h73.029a1.9,1.9,0,0,0,2.037-1.721V158.7A1.9,1.9,0,0,0,432.634,156.977Zm1.455,35.154a1.357,1.357,0,0,1-1.455,1.229H359.6a1.357,1.357,0,0,1-1.455-1.229V158.7a1.357,1.357,0,0,1,1.455-1.229h73.029a1.357,1.357,0,0,1,1.455,1.229Z" transform="translate(-2472.673 1052.379)" fill="#3f3d56"/>
      <g id="Group_951" data-name="Group 951" transform="translate(66 7.34)">
        <path id="Path_6313" data-name="Path 6313" d="M404.677,197.23a10.061,10.061,0,0,0-4.19-4.981,19.653,19.653,0,0,0-6.8-2.587,17.719,17.719,0,0,0-7.123.4c-.3.079-.617.163-.931.256a7.681,7.681,0,0,0-2.3,1.018c-.023.015-.046.029-.07.047a7.722,7.722,0,0,0-2.025,2.738,4.331,4.331,0,0,0-.521,3.026,4.558,4.558,0,0,0,1.682,2.386,3.792,3.792,0,0,0,2.048,1.013,1.41,1.41,0,0,0,.521-.087.7.7,0,0,0,.148-.073,3.71,3.71,0,0,0,.931.154,11.091,11.091,0,0,0,3.867-.925,6.654,6.654,0,0,1,.943-.253,3.529,3.529,0,0,1,1.731.058,2.559,2.559,0,0,1,.306.108,5.587,5.587,0,0,1,2.362,2.092c.556.826.922,1.766,1.533,2.56a3.636,3.636,0,0,0,2.575,1.455,7.221,7.221,0,0,0,4.751-.829,3.321,3.321,0,0,0,.9-.914c.023-.035.047-.07.067-.1C406.294,201.8,405.5,199.206,404.677,197.23Zm-20.1-3.052.876.1a3.229,3.229,0,0,0-1.51.707,3.977,3.977,0,0,0-.457.457c.006-.012.006-.026.012-.038a2.03,2.03,0,0,1,1.08-1.225Zm17.542,7.39c.052-.012.108-.02.16-.029a.561.561,0,0,0,.233-.093c0,.009,0,.02,0,.029a.917.917,0,0,0,.009.116c-.015.023-.026.047-.041.07-.122-.032-.241-.064-.364-.093Zm-.812-7.076a8.781,8.781,0,0,1,1.627,2.083,13.875,13.875,0,0,0-1.7-1.737.886.886,0,0,0,.07-.346Zm-.707,8.254a.5.5,0,0,0-.055.137c-.078,0-.16.006-.241.006h-.041c0-.012-.009-.026-.012-.038-.017-.052-.032-.1-.049-.157l.4.052Zm-6.221-6.526a.894.894,0,0,0,.006-.177.493.493,0,0,0,.218.093c.009,0,.02,0,.029.006l.163.093-.017.026c-.134-.015-.268-.026-.4-.041Zm4.609-1.449h-.009c-.192-.119-.384-.239-.579-.352.2.111.4.23.588.352Zm-1.071,5.452a.437.437,0,0,0-.076.1l-.041-.058a.455.455,0,0,1,.116-.044Zm-2.607-5.7a.89.89,0,0,0-.212-.125,9.081,9.081,0,0,0-1.149-.358c-.058-.055-.116-.111-.172-.169a8.906,8.906,0,0,1,.978.247,11.228,11.228,0,0,1,1.207.466c-.218-.023-.433-.044-.652-.061Zm-2.217-3.649a13.694,13.694,0,0,1,2.464.564l-.244-.058c-.771-.175-1.557-.361-2.348-.521l.128.015Z" transform="translate(-2555.022 1019.982)" fill="#f9a826"/>
        <path id="Path_6314" data-name="Path 6314" d="M426.775,253.539a4.085,4.085,0,0,1-2.35-.56,1.805,1.805,0,0,1-.71-1.348,1.214,1.214,0,0,1,.413-1,1.567,1.567,0,0,1,1.482-.213l-.6-4.378.44-.06.7,5.147-.367-.169a1.344,1.344,0,0,0-1.373.012.78.78,0,0,0-.256.642,1.364,1.364,0,0,0,.528,1.005,3.672,3.672,0,0,0,2.1.475Z" transform="translate(-2585.573 979.914)" fill="#3f3d56"/>
        <rect id="Rectangle_2054" data-name="Rectangle 2054" width="2.391" height="0.444" transform="translate(-2165.127 1226.334)" fill="#3f3d56"/>
        <rect id="Rectangle_2055" data-name="Rectangle 2055" width="2.391" height="0.444" transform="translate(-2157.581 1226.334)" fill="#3f3d56"/>
        <path id="Path_6315" data-name="Path 6315" d="M387.817,196.716a4.36,4.36,0,0,1-3.58-3.936,6.4,6.4,0,0,1,2.881-5.591,12.3,12.3,0,0,1,6.421-1.972,17.647,17.647,0,0,1,12.062,3.976,11.128,11.128,0,0,1,3.845,5.321,5.154,5.154,0,0,1-1.4,5.284,3.546,3.546,0,0,1-2.721.838,6.763,6.763,0,0,1-3.167-1.409c-1.808-1.315-3.293-3.146-5.5-3.833a4.272,4.272,0,0,0-4.7,1.4,2.658,2.658,0,0,0-.424,1.114.345.345,0,0,0,.233.41.335.335,0,0,0,.41-.233c.259-1.84,2.521-2.526,4.109-2.106,2.315.613,3.868,2.678,5.767,3.99a7.008,7.008,0,0,0,3.359,1.341,4.171,4.171,0,0,0,2.93-.9,5.7,5.7,0,0,0,1.884-5.468,10.733,10.733,0,0,0-3.658-5.79,18.3,18.3,0,0,0-12.505-4.62,13.681,13.681,0,0,0-6.817,1.779,7.445,7.445,0,0,0-3.675,5.556,5.245,5.245,0,0,0,2.827,5.116,4.427,4.427,0,0,0,1.419.4c.425.048.422-.618,0-.666Z" transform="translate(-2557.098 1023.488)" fill="#3f3d56"/>
      </g>
      <g id="Group_950" data-name="Group 950" transform="translate(66 5.882)">
        <path id="Path_6316" data-name="Path 6316" d="M532.008,193.268a.292.292,0,0,1-.291.291H507.859a.291.291,0,1,1,0-.582h23.858A.292.292,0,0,1,532.008,193.268Z" transform="translate(-2645.03 1017.497)" fill="#3f3d56"/>
        <path id="Path_6317" data-name="Path 6317" d="M531.717,208.559H507.859a.291.291,0,1,1,0-.582h23.858a.291.291,0,0,1,0,.582Z" transform="translate(-2645.03 1006.862)" fill="#3f3d56"/>
        <path id="Path_6318" data-name="Path 6318" d="M531.717,223.559H507.859a.291.291,0,1,1,0-.582h23.858a.291.291,0,0,1,0,.582Z" transform="translate(-2645.03 996.226)" fill="#3f3d56"/>
        <path id="Path_6319" data-name="Path 6319" d="M531.717,238.559H507.859a.291.291,0,1,1,0-.582h23.858a.291.291,0,0,1,0,.582Z" transform="translate(-2645.03 985.59)" fill="#3f3d56"/>
        <path id="Path_6320" data-name="Path 6320" d="M531.717,253.559H507.859a.291.291,0,1,1,0-.582h23.858a.291.291,0,0,1,0,.582Z" transform="translate(-2645.03 974.954)" fill="#3f3d56"/>
        <path id="Path_6321" data-name="Path 6321" d="M531.717,268.559H507.859a.291.291,0,1,1,0-.582h23.858a.291.291,0,0,1,0,.582Z" transform="translate(-2645.03 964.319)" fill="#3f3d56"/>
      </g>
    </g>
    <g id="Group_957" data-name="Group 957" transform="translate(0 1.385)">
      <path id="Path_6341" data-name="Path 6341" d="M359.6,156.977h73.029a1.9,1.9,0,0,1,2.037,1.721v33.433a1.9,1.9,0,0,1-2.037,1.721H359.6a1.9,1.9,0,0,1-2.037-1.721V158.7A1.9,1.9,0,0,1,359.6,156.977Zm-1.455,35.154a1.357,1.357,0,0,0,1.455,1.229h73.029a1.357,1.357,0,0,0,1.455-1.229V158.7a1.357,1.357,0,0,0-1.455-1.229H359.6a1.357,1.357,0,0,0-1.455,1.229Z" transform="translate(-2472.673 1092.379)" fill="#3f3d56"/>
      <g id="Group_953" data-name="Group 953" transform="translate(-2072.335 1255.356)">
        <path id="Path_6313-2" data-name="Path 6313" d="M404.677,197.23a10.061,10.061,0,0,0-4.19-4.981,19.652,19.652,0,0,0-6.8-2.587,17.719,17.719,0,0,0-7.123.4c-.3.079-.617.163-.931.256a7.681,7.681,0,0,0-2.3,1.018c-.023.015-.046.029-.07.047a7.722,7.722,0,0,0-2.025,2.738,4.331,4.331,0,0,0-.521,3.026,4.558,4.558,0,0,0,1.682,2.386,3.792,3.792,0,0,0,2.048,1.013,1.41,1.41,0,0,0,.521-.087.7.7,0,0,0,.148-.073,3.71,3.71,0,0,0,.931.154,11.091,11.091,0,0,0,3.867-.925,6.654,6.654,0,0,1,.943-.253,3.529,3.529,0,0,1,1.731.058,2.559,2.559,0,0,1,.306.108,5.587,5.587,0,0,1,2.362,2.092c.556.826.922,1.766,1.533,2.56a3.636,3.636,0,0,0,2.575,1.455,7.221,7.221,0,0,0,4.751-.829,3.321,3.321,0,0,0,.9-.914c.023-.035.047-.07.067-.1C406.294,201.8,405.5,199.206,404.677,197.23Zm-20.1-3.052.876.1a3.229,3.229,0,0,0-1.51.707,3.977,3.977,0,0,0-.457.457c.006-.012.006-.026.012-.038a2.03,2.03,0,0,1,1.08-1.225Zm17.542,7.39c.052-.012.108-.02.16-.029a.561.561,0,0,0,.233-.093c0,.009,0,.02,0,.029a.917.917,0,0,0,.009.116c-.015.023-.026.047-.041.07-.122-.032-.241-.064-.364-.093Zm-.812-7.076a8.781,8.781,0,0,1,1.627,2.083,13.876,13.876,0,0,0-1.7-1.737.886.886,0,0,0,.07-.346Zm-.707,8.254a.5.5,0,0,0-.055.137c-.078,0-.16.006-.241.006h-.041c0-.012-.009-.026-.012-.038-.017-.052-.032-.1-.049-.157l.4.052Zm-6.221-6.526a.894.894,0,0,0,.006-.177.493.493,0,0,0,.218.093c.009,0,.02,0,.029.006l.163.093-.017.026c-.134-.015-.268-.026-.4-.041Zm4.609-1.449h-.009c-.192-.119-.384-.239-.579-.352.2.111.4.23.588.352Zm-1.071,5.452a.437.437,0,0,0-.076.1l-.041-.058a.455.455,0,0,1,.116-.044Zm-2.607-5.7a.89.89,0,0,0-.212-.125,9.081,9.081,0,0,0-1.149-.358c-.058-.055-.116-.111-.172-.169a8.906,8.906,0,0,1,.978.247,11.228,11.228,0,0,1,1.207.466c-.218-.023-.433-.044-.652-.061Zm-2.217-3.649a13.694,13.694,0,0,1,2.464.564l-.244-.058c-.771-.175-1.557-.361-2.348-.521l.128.015Z" transform="translate(-380.626 -188.034)" fill="#400094"/>
        <path id="Path_6314-2" data-name="Path 6314" d="M426.775,253.539a4.085,4.085,0,0,1-2.35-.56,1.805,1.805,0,0,1-.71-1.348,1.214,1.214,0,0,1,.413-1,1.567,1.567,0,0,1,1.482-.213l-.6-4.378.44-.06.7,5.147-.367-.169a1.344,1.344,0,0,0-1.373.012.78.78,0,0,0-.256.642,1.364,1.364,0,0,0,.528,1.005,3.672,3.672,0,0,0,2.1.475Z" transform="translate(-411.176 -228.102)" fill="#3f3d56"/>
        <rect id="Rectangle_2054-2" data-name="Rectangle 2054" width="2.391" height="0.444" transform="translate(9.269 18.318)" fill="#3f3d56"/>
        <rect id="Rectangle_2055-2" data-name="Rectangle 2055" width="2.391" height="0.444" transform="translate(16.816 18.318)" fill="#3f3d56"/>
        <path id="Path_6315-2" data-name="Path 6315" d="M387.817,196.716a4.36,4.36,0,0,1-3.58-3.936,6.4,6.4,0,0,1,2.881-5.591,12.3,12.3,0,0,1,6.421-1.972,17.647,17.647,0,0,1,12.062,3.976,11.128,11.128,0,0,1,3.845,5.321,5.154,5.154,0,0,1-1.4,5.284,3.546,3.546,0,0,1-2.721.838,6.763,6.763,0,0,1-3.167-1.409c-1.808-1.315-3.293-3.146-5.5-3.833a4.272,4.272,0,0,0-4.7,1.4,2.658,2.658,0,0,0-.424,1.114.345.345,0,0,0,.233.41.335.335,0,0,0,.41-.233c.259-1.84,2.521-2.526,4.109-2.106,2.315.613,3.868,2.678,5.767,3.99a7.008,7.008,0,0,0,3.359,1.341,4.171,4.171,0,0,0,2.93-.9,5.7,5.7,0,0,0,1.884-5.468,10.733,10.733,0,0,0-3.658-5.79,18.3,18.3,0,0,0-12.505-4.62,13.681,13.681,0,0,0-6.817,1.779,7.445,7.445,0,0,0-3.675,5.556,5.245,5.245,0,0,0,2.827,5.116,4.427,4.427,0,0,0,1.419.4c.425.048.422-.618,0-.666Z" transform="translate(-382.701 -184.528)" fill="#3f3d56"/>
      </g>
      <g id="Group_952" data-name="Group 952" transform="translate(-2106.086 1256.356)">
        <path id="Path_6316-2" data-name="Path 6316" d="M507.568,193.268a.292.292,0,0,0,.291.291h23.858a.291.291,0,1,0,0-.582H507.859A.292.292,0,0,0,507.568,193.268Z" transform="translate(-507.568 -192.977)" fill="#3f3d56"/>
        <path id="Path_6317-2" data-name="Path 6317" d="M507.859,208.559h23.858a.291.291,0,0,0,0-.582H507.859a.291.291,0,1,0,0,.582Z" transform="translate(-507.568 -203.613)" fill="#3f3d56"/>
        <path id="Path_6318-2" data-name="Path 6318" d="M507.859,223.559h23.858a.291.291,0,0,0,0-.582H507.859a.291.291,0,1,0,0,.582Z" transform="translate(-507.568 -214.248)" fill="#3f3d56"/>
        <path id="Path_6319-2" data-name="Path 6319" d="M507.859,238.559h23.858a.291.291,0,0,0,0-.582H507.859a.291.291,0,1,0,0,.582Z" transform="translate(-507.568 -224.884)" fill="#3f3d56"/>
        <path id="Path_6320-2" data-name="Path 6320" d="M507.859,253.559h23.858a.291.291,0,0,0,0-.582H507.859a.291.291,0,1,0,0,.582Z" transform="translate(-507.568 -235.52)" fill="#3f3d56"/>
        <path id="Path_6321-2" data-name="Path 6321" d="M507.859,268.559h23.858a.291.291,0,0,0,0-.582H507.859a.291.291,0,1,0,0,.582Z" transform="translate(-507.568 -246.156)" fill="#3f3d56"/>
      </g>
    </g>
    <g id="Group_956" data-name="Group 956" transform="translate(-2115.105 1288.741)">
      <path id="Path_6342" data-name="Path 6342" d="M432.634,156.977H359.6a1.9,1.9,0,0,0-2.037,1.721v33.433a1.9,1.9,0,0,0,2.037,1.721h73.029a1.9,1.9,0,0,0,2.037-1.721V158.7A1.9,1.9,0,0,0,432.634,156.977Zm1.455,35.154a1.357,1.357,0,0,1-1.455,1.229H359.6a1.357,1.357,0,0,1-1.455-1.229V158.7a1.357,1.357,0,0,1,1.455-1.229h73.029a1.357,1.357,0,0,1,1.455,1.229Z" transform="translate(-357.568 -156.977)" fill="#3f3d56"/>
      <g id="Group_954" data-name="Group 954" transform="translate(6.709 6)">
        <path id="Path_6313-3" data-name="Path 6313" d="M381.655,197.23a10.061,10.061,0,0,1,4.19-4.981,19.652,19.652,0,0,1,6.8-2.587,17.719,17.719,0,0,1,7.123.4c.3.079.617.163.931.256a7.682,7.682,0,0,1,2.3,1.018c.023.015.046.029.07.047a7.722,7.722,0,0,1,2.025,2.738,4.331,4.331,0,0,1,.521,3.026,4.558,4.558,0,0,1-1.682,2.386,3.792,3.792,0,0,1-2.048,1.013,1.41,1.41,0,0,1-.521-.087.7.7,0,0,1-.148-.073,3.71,3.71,0,0,1-.931.154,11.091,11.091,0,0,1-3.867-.925,6.654,6.654,0,0,0-.943-.253,3.529,3.529,0,0,0-1.731.058,2.559,2.559,0,0,0-.306.108,5.587,5.587,0,0,0-2.362,2.092c-.556.826-.922,1.766-1.533,2.56a3.636,3.636,0,0,1-2.575,1.455,7.221,7.221,0,0,1-4.751-.829,3.321,3.321,0,0,1-.9-.914c-.023-.035-.047-.07-.067-.1C380.037,201.8,380.829,199.206,381.655,197.23Zm20.1-3.052-.876.1a3.229,3.229,0,0,1,1.51.707,3.977,3.977,0,0,1,.457.457c-.006-.012-.006-.026-.012-.038a2.03,2.03,0,0,0-1.08-1.225Zm-17.542,7.39c-.052-.012-.108-.02-.16-.029a.561.561,0,0,1-.233-.093c0,.009,0,.02,0,.029a.917.917,0,0,1-.009.116c.015.023.026.047.041.07.122-.032.241-.064.364-.093Zm.812-7.076a8.781,8.781,0,0,0-1.627,2.083,13.876,13.876,0,0,1,1.7-1.737.886.886,0,0,1-.07-.346Zm.707,8.254a.5.5,0,0,1,.055.137c.078,0,.16.006.241.006h.041c0-.012.009-.026.012-.038.017-.052.032-.1.049-.157l-.4.052Zm6.221-6.526a.894.894,0,0,1-.006-.177.493.493,0,0,1-.218.093c-.009,0-.02,0-.029.006l-.163.093.017.026c.134-.015.268-.026.4-.041Zm-4.609-1.449h.009c.192-.119.384-.239.579-.352-.2.111-.4.23-.588.352Zm1.071,5.452a.437.437,0,0,1,.076.1l.041-.058a.455.455,0,0,0-.116-.044Zm2.607-5.7a.89.89,0,0,1,.212-.125,9.081,9.081,0,0,1,1.149-.358c.058-.055.116-.111.172-.169a8.906,8.906,0,0,0-.978.247,11.228,11.228,0,0,0-1.207.466c.218-.023.433-.044.652-.061Zm2.217-3.649a13.694,13.694,0,0,0-2.464.564l.244-.058c.771-.175,1.557-.361,2.348-.521l-.128.015Z" transform="translate(-378.082 -188.034)" fill="#09f"/>
        <path id="Path_6314-3" data-name="Path 6314" d="M423.725,253.539a4.085,4.085,0,0,0,2.35-.56,1.805,1.805,0,0,0,.71-1.348,1.214,1.214,0,0,0-.413-1,1.567,1.567,0,0,0-1.482-.213l.6-4.378-.44-.06-.7,5.147.367-.169a1.344,1.344,0,0,1,1.373.012.78.78,0,0,1,.256.642,1.364,1.364,0,0,1-.528,1.005,3.672,3.672,0,0,1-2.1.475Z" transform="translate(-411.7 -228.102)" fill="#3f3d56"/>
        <rect id="Rectangle_2054-3" data-name="Rectangle 2054" width="2.391" height="0.444" transform="translate(15.964 18.318)" fill="#3f3d56"/>
        <rect id="Rectangle_2055-3" data-name="Rectangle 2055" width="2.391" height="0.444" transform="translate(8.418 18.318)" fill="#3f3d56"/>
        <path id="Path_6315-3" data-name="Path 6315" d="M406.061,196.716a4.36,4.36,0,0,0,3.58-3.936,6.4,6.4,0,0,0-2.881-5.591,12.3,12.3,0,0,0-6.421-1.972,17.647,17.647,0,0,0-12.062,3.976,11.128,11.128,0,0,0-3.845,5.321,5.154,5.154,0,0,0,1.4,5.284,3.546,3.546,0,0,0,2.721.838,6.763,6.763,0,0,0,3.167-1.409c1.808-1.315,3.293-3.146,5.5-3.833a4.272,4.272,0,0,1,4.7,1.4,2.658,2.658,0,0,1,.424,1.114.345.345,0,0,1-.233.41.335.335,0,0,1-.41-.233c-.259-1.84-2.521-2.526-4.109-2.106-2.315.613-3.868,2.678-5.767,3.99a7.009,7.009,0,0,1-3.359,1.341,4.171,4.171,0,0,1-2.93-.9,5.7,5.7,0,0,1-1.884-5.468,10.733,10.733,0,0,1,3.658-5.79,18.3,18.3,0,0,1,12.505-4.62,13.681,13.681,0,0,1,6.817,1.779,7.445,7.445,0,0,1,3.675,5.556,5.245,5.245,0,0,1-2.827,5.116,4.427,4.427,0,0,1-1.419.4c-.425.048-.422-.618,0-.666Z" transform="translate(-383.553 -184.528)" fill="#3f3d56"/>
      </g>
      <g id="Group_955" data-name="Group 955" transform="translate(43.643 7)">
        <path id="Path_6316-3" data-name="Path 6316" d="M532.008,193.268a.292.292,0,0,1-.291.291H507.859a.291.291,0,1,1,0-.582h23.858A.292.292,0,0,1,532.008,193.268Z" transform="translate(-507.568 -192.977)" fill="#3f3d56"/>
        <path id="Path_6317-3" data-name="Path 6317" d="M531.717,208.559H507.859a.291.291,0,1,1,0-.582h23.858a.291.291,0,0,1,0,.582Z" transform="translate(-507.568 -203.613)" fill="#3f3d56"/>
        <path id="Path_6318-3" data-name="Path 6318" d="M531.717,223.559H507.859a.291.291,0,1,1,0-.582h23.858a.291.291,0,0,1,0,.582Z" transform="translate(-507.568 -214.248)" fill="#3f3d56"/>
        <path id="Path_6319-3" data-name="Path 6319" d="M531.717,238.559H507.859a.291.291,0,1,1,0-.582h23.858a.291.291,0,0,1,0,.582Z" transform="translate(-507.568 -224.884)" fill="#3f3d56"/>
        <path id="Path_6320-3" data-name="Path 6320" d="M531.717,253.559H507.859a.291.291,0,1,1,0-.582h23.858a.291.291,0,0,1,0,.582Z" transform="translate(-507.568 -235.52)" fill="#3f3d56"/>
        <path id="Path_6321-3" data-name="Path 6321" d="M531.717,268.559H507.859a.291.291,0,1,1,0-.582h23.858a.291.291,0,0,1,0,.582Z" transform="translate(-507.568 -246.156)" fill="#3f3d56"/>
      </g>
    </g>
  </g>
</svg>
