<svg id="Group_62" data-name="Group 62" xmlns="http://www.w3.org/2000/svg" width="103.275" height="122.969" viewBox="0 0 103.275 122.969">
  <path id="Path_1090" data-name="Path 1090" d="M523.508,199.049,457.4,221.39a3.28,3.28,0,0,1-4.153-2.055l-30.62-90.6a3.28,3.28,0,0,1,2.055-4.153l66.1-22.341a3.28,3.28,0,0,1,4.153,2.055l30.62,90.6A3.28,3.28,0,0,1,523.508,199.049Z" transform="translate(-422.46 -102.071)" fill="#e6e6e6"/>
  <path id="Path_1091" data-name="Path 1091" d="M533.016,208.571l-64.09,21.661a2.216,2.216,0,0,1-2.806-1.388l-29.939-88.585a2.216,2.216,0,0,1,1.388-2.806l64.09-21.661a2.216,2.216,0,0,1,2.806,1.388L534.4,205.765A2.216,2.216,0,0,1,533.016,208.571Z" transform="translate(-433.655 -113.266)" fill="#fff"/>
  <path id="Path_1092" data-name="Path 1092" d="M553.09,321.617H483.313a3.28,3.28,0,0,1-3.276-3.276V222.708a3.28,3.28,0,0,1,3.276-3.276H553.09a3.28,3.28,0,0,1,3.276,3.276v95.633A3.28,3.28,0,0,1,553.09,321.617Z" transform="translate(-469.84 -198.648)" fill="#ccc"/>
  <path id="Path_1093" data-name="Path 1093" d="M561.9,329.367H494.251a2.216,2.216,0,0,1-2.214-2.214V233.646a2.216,2.216,0,0,1,2.214-2.214H561.9a2.216,2.216,0,0,1,2.214,2.214v93.507A2.216,2.216,0,0,1,561.9,329.367Z" transform="translate(-479.715 -208.522)" fill="#fff"/>
  <path id="Path_1094" data-name="Path 1094" d="M590.944,368.019H546.262a1.419,1.419,0,1,1,0-2.839h44.682a1.419,1.419,0,1,1,0,2.839Z" transform="translate(-523.169 -318.585)" fill="#f9a826"/>
  <path id="Path_1095" data-name="Path 1095" d="M596.8,395.066H546.262a1.419,1.419,0,1,1,0-2.839H596.8a1.419,1.419,0,1,1,0,2.839Z" transform="translate(-523.169 -340.842)" fill="#f9a826"/>
  <path id="Path_1096" data-name="Path 1096" d="M590.944,489.232H546.262a1.419,1.419,0,0,1,0-2.839h44.682a1.419,1.419,0,1,1,0,2.839Z" transform="translate(-523.169 -418.331)" fill="#09f"/>
  <path id="Path_1097" data-name="Path 1097" d="M596.8,516.28H546.262a1.419,1.419,0,0,1,0-2.839H596.8a1.419,1.419,0,0,1,0,2.839Z" transform="translate(-523.169 -440.589)" fill="#09f"/>
  <path id="Path_1098" data-name="Path 1098" d="M590.944,610.445H546.262a1.419,1.419,0,0,1,0-2.839h44.682a1.419,1.419,0,1,1,0,2.839Z" transform="translate(-523.169 -518.078)" fill="#f9a826"/>
  <path id="Path_1099" data-name="Path 1099" d="M596.8,637.493H546.262a1.419,1.419,0,1,1,0-2.839H596.8a1.419,1.419,0,1,1,0,2.839Z" transform="translate(-523.169 -540.336)" fill="#f9a826"/>
</svg>
