<svg id="Group_67" data-name="Group 67" xmlns="http://www.w3.org/2000/svg" width="94.027" height="122.644" viewBox="0 0 94.027 122.644">
  <g id="Rectangle_35" data-name="Rectangle 35" fill="#fff" stroke="#ccc" stroke-width="4">
    <rect width="94.027" height="122.644" rx="9" stroke="none"/>
    <rect x="2" y="2" width="90.027" height="118.644" rx="7" fill="none"/>
  </g>
  <path id="Path_1205" data-name="Path 1205" d="M522.578,491.746a.235.235,0,0,1-.235-.235V481.86a.235.235,0,1,1,.471,0v9.651A.235.235,0,0,1,522.578,491.746Z" transform="translate(-461.858 -391.434)" fill="#3f3d56"/>
  <path id="Path_1206" data-name="Path 1206" d="M477.766,439.783a.233.233,0,0,1-.118-.032l-13.373-7.792a.235.235,0,1,1,.237-.407l13.373,7.792a.235.235,0,0,1-.119.439Z" transform="translate(-417.368 -353.123)" fill="#3f3d56"/>
  <path id="Path_1207" data-name="Path 1207" d="M407.579,439.783a.235.235,0,0,1-.119-.439l13.373-7.792a.235.235,0,0,1,.237.407L407.7,439.751A.235.235,0,0,1,407.579,439.783Z" transform="translate(-373.927 -353.123)" fill="#3f3d56"/>
  <path id="Path_1208" data-name="Path 1208" d="M536.766,489.783a.235.235,0,0,1-.118-.032l-13.373-7.792a.235.235,0,0,1,.237-.407l13.373,7.792a.235.235,0,0,1-.119.439Z" transform="translate(-462.481 -391.354)" fill="#3f3d56"/>
  <path id="Path_1209" data-name="Path 1209" d="M466.579,489.783a.235.235,0,0,1-.119-.439l13.373-7.792a.235.235,0,1,1,.237.407L466.7,489.751A.235.235,0,0,1,466.579,489.783Z" transform="translate(-419.039 -391.354)" fill="#3f3d56"/>
  <path id="Path_1210" data-name="Path 1210" d="M464.507,417.955c-.13,0-.235-.473-.235-1.058l-.022-38.6c0-.586.1-1.062.235-1.063h0c.13,0,.235.473.235,1.058l.022,38.6c0,.586-.1,1.062-.235,1.063Z" transform="translate(-417.594 -343.564)" fill="#3f3d56"/>
  <path id="Path_1211" data-name="Path 1211" d="M454.915,417.427h-6.132a1.06,1.06,0,0,1-1.059-1.059v-3.15a1.06,1.06,0,0,1,1.059-1.059h6.132a1.06,1.06,0,0,1,1.059,1.059v3.15A1.06,1.06,0,0,1,454.915,417.427Z" transform="translate(-404.701 -338.115)" fill="#ccc"/>
  <path id="Path_1212" data-name="Path 1212" d="M392.814,364.992h-13.84a.236.236,0,1,1,0-.471h13.84a.236.236,0,1,1,0,.471Z" transform="translate(-354.577 -334.719)" fill="#3f3d56"/>
  <path id="Path_1213" data-name="Path 1213" d="M464.485,324.243a.236.236,0,0,1-.235-.235v-8.147a.235.235,0,1,1,.471,0v8.147A.235.235,0,0,1,464.485,324.243Z" transform="translate(-417.829 -297.456)" fill="#3f3d56"/>
  <path id="Path_1214" data-name="Path 1214" d="M12.9,7.978a.235.235,0,0,1-.12-.033L.115.438A.235.235,0,0,1,.355.033L13.022,7.541a.235.235,0,0,1-.12.438Z" transform="translate(14.095 46.811) rotate(-90)" fill="#3f3d56"/>
  <path id="Path_1215" data-name="Path 1215" d="M.236,7.978a.235.235,0,0,1-.12-.438L12.782.033a.235.235,0,0,1,.24.405L.355,7.946A.234.234,0,0,1,.236,7.978Z" transform="translate(21.598 47.073) rotate(-90)" fill="#3f3d56"/>
  <path id="Path_1216" data-name="Path 1216" d="M362.052,355.849H358.9a1.06,1.06,0,0,1-1.059-1.059v-6.132A1.06,1.06,0,0,1,358.9,347.6h3.15a1.06,1.06,0,0,1,1.059,1.059v6.132A1.06,1.06,0,0,1,362.052,355.849Z" transform="translate(-338.641 -321.78)" fill="#ccc"/>
  <path id="Path_1217" data-name="Path 1217" d="M454.915,302.2h-6.132a1.06,1.06,0,0,1-1.059-1.059v-3.15a1.06,1.06,0,0,1,1.059-1.059h6.132a1.06,1.06,0,0,1,1.059,1.059v3.15A1.06,1.06,0,0,1,454.915,302.2Z" transform="translate(-405.428 -283.164)" fill="#ccc"/>
  <path id="Path_1218" data-name="Path 1218" d="M4.209,8.25H1.059A1.06,1.06,0,0,1,0,7.191V1.059A1.06,1.06,0,0,1,1.059,0h3.15A1.06,1.06,0,0,1,5.268,1.059V7.191A1.06,1.06,0,0,1,4.209,8.25Z" transform="translate(10.257 51.199) rotate(-90)" fill="#f9a826"/>
  <path id="Path_1220" data-name="Path 1220" d="M507.626,364.992H494.578a.235.235,0,0,1,0-.471h13.048a.235.235,0,1,1,0,.471Z" transform="translate(-442.435 -334.837)" fill="#3f3d56"/>
  <path id="Path_1221" data-name="Path 1221" d="M571.579,340.6a.235.235,0,0,1-.12-.438l12.667-7.508a.235.235,0,1,1,.24.405L571.7,340.57A.233.233,0,0,1,571.579,340.6Z" transform="translate(-501.31 -310.448)" fill="#3f3d56"/>
  <path id="Path_1222" data-name="Path 1222" d="M584.245,372.5a.234.234,0,0,1-.12-.033l-12.667-7.508a.235.235,0,0,1,.24-.4l12.667,7.508a.235.235,0,0,1-.12.438Z" transform="translate(-501.31 -334.837)" fill="#3f3d56"/>
  <path id="Path_1223" data-name="Path 1223" d="M554.485,355.849h-3.15a1.06,1.06,0,0,1-1.059-1.059v-6.132a1.06,1.06,0,0,1,1.059-1.059h3.15a1.06,1.06,0,0,1,1.059,1.059v6.132A1.06,1.06,0,0,1,554.485,355.849Z" transform="translate(-485.202 -321.898)" fill="#f9a826"/>
  <path id="Path_1224" data-name="Path 1224" d="M629.485,324.849h-3.15a1.06,1.06,0,0,1-1.059-1.059v-6.132a1.06,1.06,0,0,1,1.059-1.059h3.15a1.06,1.06,0,0,1,1.059,1.059v6.132A1.06,1.06,0,0,1,629.485,324.849Z" transform="translate(-542.549 -298.195)" fill="#ccc"/>
  <path id="Path_1225" data-name="Path 1225" d="M629.485,387.849h-3.15a1.06,1.06,0,0,1-1.059-1.059v-6.132a1.06,1.06,0,0,1,1.059-1.059h3.15a1.061,1.061,0,0,1,1.059,1.059v6.132A1.06,1.06,0,0,1,629.485,387.849Z" transform="translate(-542.549 -346.366)" fill="#ccc"/>
  <path id="Path_1226" data-name="Path 1226" d="M396.915,468.427h-6.132a1.06,1.06,0,0,1-1.059-1.059v-3.15a1.06,1.06,0,0,1,1.059-1.059h6.132a1.06,1.06,0,0,1,1.059,1.059v3.15a1.06,1.06,0,0,1-1.059,1.059Z" transform="translate(-360.455 -377.315)" fill="#f9a826"/>
  <path id="Path_1227" data-name="Path 1227" d="M512.73,468.427H506.6a1.06,1.06,0,0,1-1.059-1.059v-3.15a1.06,1.06,0,0,1,1.059-1.059h6.132a1.06,1.06,0,0,1,1.059,1.059v3.15A1.06,1.06,0,0,1,512.73,468.427Z" transform="translate(-449.009 -377.315)" fill="#ccc"/>
  <path id="Path_1228" data-name="Path 1228" d="M459.73,517.427H453.6a1.06,1.06,0,0,1-1.059-1.059v-3.15a1.06,1.06,0,0,1,1.059-1.059h6.132a1.06,1.06,0,0,1,1.059,1.059v3.15A1.06,1.06,0,0,1,459.73,517.427Z" transform="translate(-408.484 -414.781)" fill="#ccc"/>
  <path id="Path_1229" data-name="Path 1229" d="M570.73,517.427H564.6a1.06,1.06,0,0,1-1.059-1.059v-3.15a1.06,1.06,0,0,1,1.059-1.059h6.132a1.06,1.06,0,0,1,1.059,1.059v3.15A1.06,1.06,0,0,1,570.73,517.427Z" transform="translate(-493.358 -414.781)" fill="#f9a826"/>
  <path id="Path_1230" data-name="Path 1230" d="M512.73,517.427H506.6a1.06,1.06,0,0,1-1.059-1.059v-3.15a1.06,1.06,0,0,1,1.059-1.059h6.132a1.06,1.06,0,0,1,1.059,1.059v3.15A1.06,1.06,0,0,1,512.73,517.427Z" transform="translate(-449.009 -414.781)" fill="#ccc"/>
  <path id="Path_1231" data-name="Path 1231" d="M445.048,356.314H430.14a1.06,1.06,0,0,1-1.059-1.059v-6.071a1.06,1.06,0,0,1,1.059-1.059h14.908a1.06,1.06,0,0,1,1.059,1.059v6.071A1.06,1.06,0,0,1,445.048,356.314Z" transform="translate(-390.938 -322.306)" fill="#09f"/>
  <path id="Path_1232" data-name="Path 1232" d="M12.9,7.978a.235.235,0,0,1-.12-.033L.115.438A.235.235,0,0,1,.355.033L13.022,7.541a.235.235,0,0,1-.12.438Z" transform="translate(21.462 63.896) rotate(-90)" fill="#3f3d56"/>
  <path id="Path_1233" data-name="Path 1233" d="M.236,7.978a.235.235,0,0,1-.12-.438L12.782.033a.235.235,0,0,1,.24.405L.355,7.946A.234.234,0,0,1,.236,7.978Z" transform="translate(28.965 64.157) rotate(-90)" fill="#3f3d56"/>
  <path id="Path_1219" data-name="Path 1219" d="M4.209,8.25H1.059A1.06,1.06,0,0,1,0,7.191V1.059A1.06,1.06,0,0,1,1.059,0h3.15A1.06,1.06,0,0,1,5.268,1.059V7.191A1.06,1.06,0,0,1,4.209,8.25Z" transform="translate(25.077 51.716) rotate(-90)" fill="#ccc"/>
  <path id="Path_1234" data-name="Path 1234" d="M459.73,517.427H453.6a1.06,1.06,0,0,1-1.059-1.059v-3.15a1.06,1.06,0,0,1,1.059-1.059h6.132a1.06,1.06,0,0,1,1.059,1.059v3.15A1.06,1.06,0,0,1,459.73,517.427Z" transform="translate(-434.829 -449.179)" fill="#ccc"/>
  <path id="Path_1235" data-name="Path 1235" d="M459.73,517.427H453.6a1.06,1.06,0,0,1-1.059-1.059v-3.15a1.06,1.06,0,0,1,1.059-1.059h6.132a1.06,1.06,0,0,1,1.059,1.059v3.15A1.06,1.06,0,0,1,459.73,517.427Z" transform="translate(-419.721 -448.264)" fill="#09f"/>
</svg>
