<svg id="Group_65" data-name="Group 65" xmlns="http://www.w3.org/2000/svg" width="111.625" height="122.644" viewBox="0 0 111.625 122.644">
  <path id="Path_1112" data-name="Path 1112" d="M269.607,502.682" transform="translate(-174.52 -406.902)" fill="#f2f2f2"/>
  <path id="Path_1158" data-name="Path 1158" d="M68.348,169.893h94.857v31.14h-3.593v8.144l-8.144-8.144H68.348Z" transform="translate(-51.58 -128.213)" fill="#ccc"/>
  <rect id="Rectangle_23" data-name="Rectangle 23" width="89.587" height="24.912" transform="translate(19.403 44.712)" fill="#fff"/>
  <rect id="Rectangle_24" data-name="Rectangle 24" width="43.134" height="1.309" transform="translate(26.607 51.985)" fill="#f9a826"/>
  <rect id="Rectangle_25" data-name="Rectangle 25" width="75.179" height="1.309" transform="translate(26.607 56.514)" fill="#e6e6e6"/>
  <rect id="Rectangle_26" data-name="Rectangle 26" width="75.105" height="1.309" transform="translate(26.607 61.042)" fill="#e6e6e6"/>
  <path id="Path_1159" data-name="Path 1159" d="M94.857,339.785H0v31.14H3.593v8.144l8.144-8.144h83.12Z" transform="translate(0 -256.426)" fill="#ccc"/>
  <rect id="Rectangle_27" data-name="Rectangle 27" width="89.587" height="24.912" transform="translate(2.635 86.392)" fill="#fff"/>
  <rect id="Rectangle_28" data-name="Rectangle 28" width="43.134" height="1.309" transform="translate(10.558 93.904)" fill="#09f"/>
  <rect id="Rectangle_29" data-name="Rectangle 29" width="75.179" height="1.309" transform="translate(10.558 98.433)" fill="#e6e6e6"/>
  <rect id="Rectangle_30" data-name="Rectangle 30" width="75.105" height="1.309" transform="translate(10.558 102.961)" fill="#e6e6e6"/>
  <path id="Path_1160" data-name="Path 1160" d="M94.857,0H0V31.14H3.593v8.144l8.144-8.144h83.12Z" fill="#ccc"/>
  <rect id="Rectangle_31" data-name="Rectangle 31" width="89.587" height="24.912" transform="translate(2.635 3.032)" fill="#fff"/>
  <rect id="Rectangle_32" data-name="Rectangle 32" width="43.134" height="1.309" transform="translate(10.558 10.545)" fill="#09f"/>
  <rect id="Rectangle_33" data-name="Rectangle 33" width="75.179" height="1.309" transform="translate(10.558 15.073)" fill="#e6e6e6"/>
  <rect id="Rectangle_34" data-name="Rectangle 34" width="75.105" height="1.309" transform="translate(10.558 19.602)" fill="#e6e6e6"/>
</svg>
