<svg xmlns="http://www.w3.org/2000/svg" width="109.956" height="126.644" viewBox="0 0 109.956 126.644">
  <g id="Group_66" data-name="Group 66" transform="translate(2 2)">
    <path id="Path_1173" data-name="Path 1173" d="M516.249,316.317H415.643c-1.475,0-2.675-2.211-2.675-4.928V197.328c0-2.015.889-3.655,1.982-3.655H516.91c1.111,0,2.015,1.667,2.015,3.715v114C518.924,314.106,517.725,316.317,516.249,316.317Z" transform="translate(-412.968 -193.673)" fill="#fff" stroke="#ccc" stroke-width="4"/>
    <path id="Path_1175" data-name="Path 1175" d="M630.821,260.133H592.1a2.176,2.176,0,1,1,0-4.353h38.718a2.176,2.176,0,0,1,0,4.353Z" transform="translate(-582.034 -235.193)" fill="#ccc"/>
    <path id="Path_1176" data-name="Path 1176" d="M775.967,260.133H737.248a2.176,2.176,0,0,1,0-4.353h38.718a2.176,2.176,0,0,1,0,4.353Z" transform="translate(-679.069 -235.193)" fill="#ccc"/>
    <path id="Path_1177" data-name="Path 1177" d="M718.208,285.015H650.851a2.176,2.176,0,0,1,0-4.353h67.356a2.176,2.176,0,1,1,0,4.353Z" transform="translate(-621.31 -251.827)" fill="#09f"/>
    <path id="Path_1178" data-name="Path 1178" d="M630.821,234.9H592.1a2.176,2.176,0,1,1,0-4.353h38.718a2.176,2.176,0,0,1,0,4.353Z" transform="translate(-582.034 -218.328)" fill="#09f"/>
    <path id="Path_1179" data-name="Path 1179" d="M751.009,235.251h-11a2.176,2.176,0,1,1,0-4.353h11a2.176,2.176,0,1,1,0,4.353Z" transform="translate(-680.917 -218.559)" fill="#ccc"/>
    <path id="Path_1180" data-name="Path 1180" d="M603.1,285.015h-11a2.176,2.176,0,1,1,0-4.353h11a2.176,2.176,0,0,1,0,4.353Z" transform="translate(-582.034 -251.827)" fill="#ccc"/>
    <path id="Path_1181" data-name="Path 1181" d="M630.821,493.133H592.1a2.176,2.176,0,1,1,0-4.353h38.718a2.176,2.176,0,0,1,0,4.353Z" transform="translate(-582.034 -390.961)" fill="#09f"/>
    <path id="Path_1182" data-name="Path 1182" d="M775.967,493.133H737.248a2.176,2.176,0,0,1,0-4.353h38.718a2.176,2.176,0,0,1,0,4.353Z" transform="translate(-679.069 -390.961)" fill="#ccc"/>
    <path id="Path_1183" data-name="Path 1183" d="M718.208,518.015H650.851a2.176,2.176,0,1,1,0-4.353h67.356a2.176,2.176,0,0,1,0,4.353Z" transform="translate(-621.31 -407.595)" fill="#ccc"/>
    <path id="Path_1184" data-name="Path 1184" d="M630.821,467.9H592.1a2.176,2.176,0,1,1,0-4.353h38.718a2.176,2.176,0,1,1,0,4.353Z" transform="translate(-582.034 -374.095)" fill="#ccc"/>
    <path id="Path_1185" data-name="Path 1185" d="M751.009,468.251h-11a2.176,2.176,0,1,1,0-4.353h11a2.176,2.176,0,1,1,0,4.353Z" transform="translate(-680.917 -374.327)" fill="#09f"/>
    <path id="Path_1186" data-name="Path 1186" d="M603.1,518.015h-11a2.176,2.176,0,1,1,0-4.353h11a2.176,2.176,0,0,1,0,4.353Z" transform="translate(-582.034 -407.595)" fill="#09f"/>
    <path id="Path_1187" data-name="Path 1187" d="M647.191,361.184a3.115,3.115,0,0,1-2.2-.9l-14.554-14.372a3.033,3.033,0,0,1,0-4.317l14.5-14.314a3.216,3.216,0,0,1,4.522.014h0a3.212,3.212,0,0,1,0,4.537L638.688,342.6a1.794,1.794,0,0,0,0,2.535L649.4,355.852a3.122,3.122,0,0,1-2.21,5.331Z" transform="translate(-608.518 -282.378)" fill="#f9a826"/>
    <path id="Path_1188" data-name="Path 1188" d="M746.289,361.184a3.122,3.122,0,0,1-2.21-5.331l10.713-10.713a1.794,1.794,0,0,0,0-2.535l-10.771-10.772a3.208,3.208,0,0,1,0-4.537h0a3.216,3.216,0,0,1,4.522-.014l14.5,14.314a3.034,3.034,0,0,1,0,4.317l-14.554,14.372A3.115,3.115,0,0,1,746.289,361.184Z" transform="translate(-684.424 -282.379)" fill="#f9a826"/>
    <path id="Path_1189" data-name="Path 1189" d="M637.9,342.857a1.476,1.476,0,0,1-1.04-.426l-6.895-6.809a1.437,1.437,0,0,1,0-2.045l6.867-6.781a1.523,1.523,0,0,1,2.142.007h0a1.521,1.521,0,0,1,0,2.149l-5.1,5.1a.85.85,0,0,0,0,1.2l5.075,5.075a1.479,1.479,0,0,1-1.047,2.526Z" transform="translate(-592.656 -273.215)" fill="#f9a826"/>
    <path id="Path_1190" data-name="Path 1190" d="M744.6,342.857a1.479,1.479,0,0,1-1.047-2.526l5.075-5.075a.85.85,0,0,0,0-1.2l-5.1-5.1a1.52,1.52,0,0,1,0-2.149h0a1.524,1.524,0,0,1,2.143-.007l6.867,6.781a1.437,1.437,0,0,1,0,2.045l-6.895,6.809A1.476,1.476,0,0,1,744.6,342.857Z" transform="translate(-688.369 -273.215)" fill="#f9a826"/>
  </g>
</svg>
