<svg xmlns="http://www.w3.org/2000/svg" width="548.749" height="536" viewBox="0 0 548.749 536">
  <g id="Group_303" data-name="Group 303" transform="translate(1932.5 -2538)">
    <g id="Group_299" data-name="Group 299" transform="translate(-1932.5 2538)">
      <path id="Path_1090" data-name="Path 1090" d="M862.908,524.779,574.778,622.16a14.3,14.3,0,0,1-18.1-8.956L423.211,218.3a14.3,14.3,0,0,1,8.957-18.1l288.13-97.38a14.3,14.3,0,0,1,18.1,8.957l133.466,394.9A14.3,14.3,0,0,1,862.908,524.779Z" transform="translate(-422.46 -102.071)" fill="#e6e6e6"/>
      <path id="Path_1091" data-name="Path 1091" d="M858.657,520.589,579.3,615a9.66,9.66,0,0,1-12.231-6.052l-130.5-386.124a9.66,9.66,0,0,1,6.052-12.231l279.355-94.414a9.66,9.66,0,0,1,12.231,6.052l130.5,386.124A9.661,9.661,0,0,1,858.657,520.589Z" transform="translate(-425.563 -105.174)" fill="#fff"/>
      <path id="Path_1092" data-name="Path 1092" d="M798.459,664.837H494.318a14.3,14.3,0,0,1-14.281-14.281V233.713a14.3,14.3,0,0,1,14.281-14.281H798.459a14.3,14.3,0,0,1,14.28,14.281V650.556A14.3,14.3,0,0,1,798.459,664.837Z" transform="translate(-435.591 -128.837)" fill="#ccc"/>
      <path id="Path_1093" data-name="Path 1093" d="M796.564,658.311H501.686a9.66,9.66,0,0,1-9.649-9.649V241.081a9.66,9.66,0,0,1,9.649-9.649H796.564a9.66,9.66,0,0,1,9.649,9.649v407.58A9.66,9.66,0,0,1,796.564,658.311Z" transform="translate(-438.328 -131.574)" fill="#fff"/>
      <path id="Path_1094" data-name="Path 1094" d="M745.789,377.554H551.029a6.186,6.186,0,1,1,0-12.373H745.789a6.186,6.186,0,1,1,0,12.373Z" transform="translate(-450.371 -162.077)" fill="#f9a826"/>
      <path id="Path_1095" data-name="Path 1095" d="M771.308,404.6H551.029a6.186,6.186,0,1,1,0-12.373H771.308a6.186,6.186,0,1,1,0,12.373Z" transform="translate(-450.371 -168.246)" fill="#f9a826"/>
      <path id="Path_1096" data-name="Path 1096" d="M745.789,498.767H551.029a6.186,6.186,0,0,1,0-12.373h194.76a6.186,6.186,0,1,1,0,12.373Z" transform="translate(-450.371 -189.722)" fill="#09f"/>
      <path id="Path_1097" data-name="Path 1097" d="M771.308,525.814H551.029a6.186,6.186,0,0,1,0-12.373H771.308a6.186,6.186,0,0,1,0,12.373Z" transform="translate(-450.371 -195.891)" fill="#09f"/>
      <path id="Path_1098" data-name="Path 1098" d="M745.789,619.979H551.029a6.186,6.186,0,1,1,0-12.372h194.76a6.186,6.186,0,1,1,0,12.372Z" transform="translate(-450.371 -217.367)" fill="#f9a826"/>
      <path id="Path_1099" data-name="Path 1099" d="M771.308,647.027H551.029a6.186,6.186,0,1,1,0-12.372H771.308a6.186,6.186,0,1,1,0,12.372Z" transform="translate(-450.371 -223.536)" fill="#f9a826"/>
    </g>
    <g id="humaaans_sitting-2" data-name="humaaans/sitting-2" transform="translate(-1797 2499)">
      <g id="A-Human_Sitting" data-name="A-Human/Sitting" transform="translate(413.249 575) rotate(180)">
        <g id="Head_Front_Rad" data-name="Head/Front/Rad" transform="translate(85.633 394.864)">
          <g id="Head" transform="translate(26.959 0)">
            <path id="Path_5389" data-name="Path 5389" d="M13.1,61.069C5.8,69.646.849,80.158,1.676,91.936c2.381,33.937,49.622,26.471,58.812,9.343s8.1-60.576-3.779-63.637c-4.736-1.221-14.826,1.77-25.1,7.959L38.059,0H0Z" fill="#ff9b96" fill-rule="evenodd"/>
          </g>
          <path id="hair" d="M92.621,37.9A11.894,11.894,0,0,0,95.1,33.3a46.551,46.551,0,0,0,1.588-5.233c.8-3.567.807-7.669-1.738-10.438a11.969,11.969,0,0,0-7.929-3.434A14.565,14.565,0,0,0,81.4,14.9c-1.791.588-3.334,1.762-5.07,2.49A22.686,22.686,0,0,0,73.656,6.245a11.114,11.114,0,0,0-8.275-5.4A16.409,16.409,0,0,0,55.3,2.876c-.784.424-1.56.868-2.3,1.371a6.457,6.457,0,0,1-2,1.1c-.814.191-1.217-.279-1.746-.873a13.279,13.279,0,0,0-2.058-1.853A12.127,12.127,0,0,0,35.846.67a10.546,10.546,0,0,0-4.626,3.344C30.164,5.4,29.411,7.595,27.954,8.559c-.618.409-1.055-.133-1.618-.534-.846-.6-1.652-1.267-2.507-1.853a11.486,11.486,0,0,0-3.9-1.762c-2.04-.472-4.859-.361-5.442,2.311a11.034,11.034,0,0,0,.02,3.088c.1,1.389.2,2.776.319,4.163a30.084,30.084,0,0,0,.406,3.1,4.541,4.541,0,0,1,.2,2.13c-.3.69-1.658.3-2.24.322a8.851,8.851,0,0,0-3.368.741A3.624,3.624,0,0,0,7.79,22.153a3.387,3.387,0,0,0-.056,1.773,5.291,5.291,0,0,1-.108,1.819c-1.545-.761-6.9-2.45-7.57.318A4.331,4.331,0,0,0,.731,28.8a23.759,23.759,0,0,0,2.495,3.8A33.957,33.957,0,0,0,9.87,39.047a4.355,4.355,0,0,0-1.136,7.294A5.4,5.4,0,0,0,12.7,47.49a8.755,8.755,0,0,1,1.638-.13,3.92,3.92,0,0,0,.743.25,22.088,22.088,0,0,0,6.077-.771,20.038,20.038,0,0,0,9.268-4.847,2.858,2.858,0,0,1,2.144-.984c.8.008,1.579.227,2.376.247,2.107.054,4.007-.976,5.964-1.662a22.5,22.5,0,0,0,1.954,7.932c.882,1.939,2.723,2.221,4.532,2.391,5.786.544,11.592-.063,17.385-.055-5.608,1.268-11.4,1.79-16.961,3.282-2.512.674-.594,2.367.48,3.541a20.405,20.405,0,0,1,4,6.851C55.035,59.958,59.884,57.6,64.18,58.7c4.747,1.214,8.089,7.633,5.054,12.247-1.762,2.679-4.944,3.713-7.592,4.864,2.066,2.148,2.565,5.32,3.808,7.991.613,1.318,1.474,2.807,2.845,3.267a3.326,3.326,0,0,1,1.5.6c.5.512.614,1.085,1.247,1.525a7.032,7.032,0,0,0,8.713-.671c2.025-2.073,1.5-5.354-.193-7.455,2.692-1.122,7.6-2.566,6.527-6.76,5.834-.387,20-9.849,12.169-16.763,4.3-2.429,8.245-8.364,5.486-13.6-2.127-4.029-7.069-5.83-11.125-6.043" transform="translate(104.663 141.136) rotate(180)" fill="#191847" fill-rule="evenodd"/>
        </g>
        <g id="Bottom_Sitting_Skinny-Jeans-1" data-name="Bottom/Sitting/Skinny-Jeans-1" transform="translate(0 0)">
          <g id="Objects_Seat_Cube" data-name="Objects/Seat/Cube" transform="translate(0 0)">
            <g id="Seat" transform="translate(0)">
              <path id="Seat-Stuff" d="M43.8,196.639h122.51L182.367,0H0Z" fill="#c5cfd6" fill-rule="evenodd"/>
              <path id="Seat-Stuff-2" data-name="Seat-Stuff" d="M43.8,196.639H81.483L104.034,0H0Z" fill="rgba(0,0,0,0.1)" fill-rule="evenodd"/>
            </g>
          </g>
          <path id="Skin" d="M107.638,223.717c13.062,7.843,34.976-2.234,34.962-13.451C142.555,176.7,111.926,18.523,110.326,8.523S91.6-4.117,90.6,8.491C89.011,28.552,86.061,98,89.012,130.145c1.218,13.269,2.529,25.905,3.82,37.179Q68.725,123.787,18.262,42.654L0,51q21.511,70.875,35.278,100.073c15.715,33.328,30.451,61.87,36.653,71.923C81.686,238.808,98.665,233.291,107.638,223.717Z" transform="translate(198.347 6.61)" fill="#ff9b96" fill-rule="evenodd"/>
          <path id="LegLower" d="M0,0,8.116,160.974c5.848,27.835,55.355,14.917,55.335,0C63.4,127.109,43.062,10.122,43.048.033Z" transform="translate(199.651 83.849) rotate(-20)" fill="#69a1ac" fill-rule="evenodd"/>
          <g id="Accessories_Shoe_Flat-Sneaker" data-name="Accessories/Shoe/Flat-Sneaker" transform="matrix(0.866, -0.5, 0.5, 0.866, 182.291, 48.255)">
            <path id="shoe" d="M2.661,23.15Q0,16.046,0,12.519A79.57,79.57,0,0,1,1.429,0H90.872q3.486,11.526-4.025,12.445T74.366,14.1L32.794,32.638a1.586,1.586,0,0,1-2.094-.8l-.018-.041L28.01,25.312q-6.954-3.245-11.3-3.244-3.532,0-9.756,2.853h0a3.172,3.172,0,0,1-4.2-1.562Q2.7,23.256,2.661,23.15Z" transform="translate(0 0)" fill="#e4e4e4" fill-rule="evenodd"/>
          </g>
          <g id="Accessories_Shoe_Flat-Sneaker-2" data-name="Accessories/Shoe/Flat-Sneaker" transform="translate(282.272 0)">
            <path id="shoe-2" data-name="shoe" d="M2.661,23.15Q0,16.046,0,12.519A79.57,79.57,0,0,1,1.429,0H90.871q3.486,11.526-4.025,12.445T74.366,14.1L32.794,32.637a1.586,1.586,0,0,1-2.094-.8l-.018-.041L28.01,25.311q-6.954-3.245-11.3-3.244-3.532,0-9.756,2.853h0a3.172,3.172,0,0,1-4.2-1.562Q2.7,23.256,2.661,23.15Z" transform="translate(0)" fill="#e4e4e4" fill-rule="evenodd"/>
          </g>
          <path id="Leg-and-Butt" d="M270.807,149.712c0-42.13-20.006-140.4-20.019-149.679L207.74,0q9.451,131.531,6.7,132.948c-2.75,1.417-112.673-10.975-145.641-10.975-47.539,0-67.206,29.979-68.8,85.514H94.174c19.175-2.052,119.193-22.225,156.338-29.16C266.414,175.358,270.807,161.318,270.807,149.712Z" transform="translate(74.533 55.755)" fill="#89c5cc" fill-rule="evenodd"/>
        </g>
        <g id="Body_Pointing-Forward" data-name="Body/Pointing-Forward" transform="translate(54.272 200.076)">
          <path id="Skin-2" data-name="Skin" d="M0,49.7,55.043,79.846q13.73,16.3,27.055,25.325c2.715,1.133,7.461,1.819,3.023-6.06s-8.755-16.368-6.494-18.8,7.9.964,10.6-3.07q2.7-4.033-28.906-12.743l-40-36.62ZM86.207,24.263l24.179,13.282q5.088,19.363,12.165,19.485c3.625,1.686-2.686-14.625,4.183-13.211s23.641,13.887,26.53,11.355c4.275-3.746.463-15.25-4.028-20.973-8.394-10.7-15.343-14.353-32.522-19.142Q103.244,11.3,87.584,0Z" transform="translate(129.106 112.263)" fill="#ff9b96" fill-rule="evenodd"/>
          <path id="Sleeve" d="M8.729,38.63c19.074-2.815,45.1-2.815,74.923,10.092l6.881-25.414C68.907,7.72,40.215-3.356,17.34.928-.687,4.3-6.472,27.673,8.729,38.63Z" transform="translate(99.721 129.157) rotate(9)" fill="#e87613" fill-rule="evenodd"/>
          <path id="Clothes" d="M128.26,130.149q30.7-7.657,102.969,18.059,17.926-37.084,16.573-52.876c-41.331-21.589-76.753-31.215-105.938-31.851.928-17.315-1.18-33.793-8.26-48.849C119.048-16.319,33.811,12.345,5.152,6.7-12.795,64.989,21.906,88.676,21.934,125.97c.031,40.841,32.824,103.706,37.649,103.706h44C106.012,198.485,118.231,164.11,128.26,130.149Z" fill="#ff9b21" fill-rule="evenodd"/>
        </g>
      </g>
    </g>
  </g>
</svg>
