<svg xmlns="http://www.w3.org/2000/svg" width="591.462" height="1084.243" viewBox="0 0 591.462 1084.243">
  <g id="Group_960" data-name="Group 960" transform="translate(4.243 -1529.757)">
    <path id="Path_5391" data-name="Path 5391" d="M-1242.385,352.524l228.445,228.445v86.453l-228.445-228.445Z" transform="translate(1242.385 1233.504)" fill="#fff"/>
    <path id="Path_5392" data-name="Path 5392" d="M-1091.227,504.751l24.844,24.844v85.6l-24.844-24.844Z" transform="translate(1329.883 1315.413)" fill="#fff"/>
    <path id="Path_5393" data-name="Path 5393" d="M-1243.243,417.009-1140.756,519.5v36.295L-1243.243,453.3Z" transform="translate(1243.243 1319.594)" fill="#fff"/>
    <path id="Path_5394" data-name="Path 5394" d="M-1196.543,464.308l23.549,23.549V522.21l-23.549-23.549Z" transform="translate(1339.92 1417.511)" fill="#fff"/>
    <path id="Path_5395" data-name="Path 5395" d="M-1196.305,350.641l209.477,209.477" transform="translate(1196.305 1183.359)" fill="none" stroke="#fff" stroke-linecap="round" stroke-width="6"/>
    <path id="Path_5396" data-name="Path 5396" d="M-1242.385,352.524-655.166,914.5H-853.083l-389.3-349.3Z" transform="translate(1242.385 1699.504)" fill="#fff" opacity="0.25"/>
    <g id="Group_309" data-name="Group 309" transform="translate(0 -1060)">
      <path id="Path_5397" data-name="Path 5397" d="M71.89,353.657a2.512,2.512,0,0,1-1.574-.555l-53.21-42.9a2.512,2.512,0,0,1,.846-4.35l59.385-18.089a2.526,2.526,0,0,1,2.314.45l53.223,42.9a2.539,2.539,0,0,1,.886,2.433,2.512,2.512,0,0,1-1.732,1.917l-59.4,18.089A2.339,2.339,0,0,1,71.89,353.657Zm-47.947-44.39,48.489,39.088,53.607-16.317-48.5-39.088Z" transform="translate(296.716 3135.932)" fill="#5beeff"/>
      <path id="Path_5398" data-name="Path 5398" d="M43.611,408.485a2.512,2.512,0,0,1-2.393-3.253l20.245-65.283a2.512,2.512,0,0,1,1.666-1.653l59.4-18.089a2.512,2.512,0,0,1,3.134,3.147l-20.284,65.283a2.459,2.459,0,0,1-1.666,1.653l-59.4,18.089A2.643,2.643,0,0,1,43.611,408.485Zm22.255-65.772-18.512,59.5,53.607-16.331,18.512-59.5ZM102.983,387.9Z" transform="translate(304.75 3148.925)" fill="#5beeff"/>
      <path id="Path_5399" data-name="Path 5399" d="M56.926,414.46a2.539,2.539,0,0,1-1.6-.582L.913,369.1a2.5,2.5,0,0,1-.78-2.737l21.382-63.339a2.512,2.512,0,0,1,4.76,1.6l-20.84,61.7,53.091,43.636a2.512,2.512,0,0,1-1.6,4.443Z" transform="translate(291.501 3142.682)" fill="#5beeff"/>
    </g>
  </g>
</svg>
