<svg xmlns="http://www.w3.org/2000/svg" width="62.854" height="60.5" viewBox="0 0 62.854 60.5">
  <g id="Group_885" data-name="Group 885" transform="translate(-18001.939 -8292.851)">
    <path id="Path_1239" data-name="Path 1239" d="M25.736,352.512a1.148,1.148,0,0,1-.723-.263L.412,332.006a1.13,1.13,0,0,1-.353-1.237l9.667-28.636a1.136,1.136,0,0,1,2.152.723L2.457,330.751l24,19.728a1.136,1.136,0,0,1-.723,2.009Z" transform="translate(18001.939 8000.718)" fill="#09f"/>
    <path id="Path_1237" data-name="Path 1237" d="M41.366,317.5a1.136,1.136,0,0,1-.711-.251L16.6,297.852a1.136,1.136,0,0,1,.383-1.967l26.848-8.178a1.142,1.142,0,0,1,1.046.2L68.937,307.3a1.148,1.148,0,0,1,.4,1.1,1.136,1.136,0,0,1-.783.867L41.7,317.449A1.057,1.057,0,0,1,41.366,317.5ZM19.689,297.428,41.611,315.1l24.236-7.377L43.918,290.051Z" transform="translate(17995.434 8005.192)" fill="#5beeff"/>
    <path id="Path_1238" data-name="Path 1238" d="M42.238,360.057a1.136,1.136,0,0,1-1.082-1.471l9.153-29.515a1.136,1.136,0,0,1,.753-.747l26.854-8.178a1.136,1.136,0,0,1,1.417,1.423l-9.171,29.514a1.112,1.112,0,0,1-.753.747l-26.854,8.178A1.194,1.194,0,0,1,42.238,360.057ZM52.3,330.322l-8.37,26.9,24.236-7.383,8.37-26.9ZM69.08,350.749Z" transform="translate(17985.408 7993.293)" fill="#5beeff"/>
  </g>
</svg>
