<svg xmlns="http://www.w3.org/2000/svg" width="1868.12" height="664.599" viewBox="0 0 1868.12 664.599">
  <g id="Layer_2" data-name="Layer 2" transform="translate(0.001 31.666)">
    <g id="OBJECTS" transform="translate(-0.001 0.001)">
      <path id="Path_1236" data-name="Path 1236" d="M177.173,414.15a24.926,24.926,0,0,1-24.661-21.369h0a24.939,24.939,0,1,1,28.179,21.157,26.337,26.337,0,0,1-3.517.211Zm-22.955-21.607a23.18,23.18,0,1,0,4.443-17.19,22.889,22.889,0,0,0-4.443,17.19Z" transform="translate(49.076 140.044)" fill="#fff"/>
      <path id="Path_1237" data-name="Path 1237" d="M71.89,353.657a2.512,2.512,0,0,1-1.574-.555l-53.21-42.9a2.512,2.512,0,0,1,.846-4.35l59.385-18.089a2.526,2.526,0,0,1,2.314.45l53.223,42.9a2.539,2.539,0,0,1,.886,2.433,2.512,2.512,0,0,1-1.732,1.917l-59.4,18.089A2.339,2.339,0,0,1,71.89,353.657Zm-47.947-44.39,48.489,39.088,53.607-16.317-48.5-39.088Z" transform="translate(5.216 108.526)" fill="#83d4cf"/>
      <path id="Path_1238" data-name="Path 1238" d="M43.611,408.485a2.512,2.512,0,0,1-2.393-3.253l20.245-65.283a2.512,2.512,0,0,1,1.666-1.653l59.4-18.089a2.512,2.512,0,0,1,3.134,3.147l-20.284,65.283a2.459,2.459,0,0,1-1.666,1.653l-59.4,18.089A2.643,2.643,0,0,1,43.611,408.485Zm22.255-65.772-18.512,59.5,53.607-16.331,18.512-59.5ZM102.983,387.9Z" transform="translate(13.25 121.519)" fill="#83d4cf"/>
      <path id="Path_1239" data-name="Path 1239" d="M56.926,414.46a2.539,2.539,0,0,1-1.6-.582L.913,369.1a2.5,2.5,0,0,1-.78-2.737l21.382-63.339a2.512,2.512,0,0,1,4.76,1.6l-20.84,61.7,53.091,43.636a2.512,2.512,0,0,1-1.6,4.443Z" transform="translate(0.001 115.276)" fill="#83d4cf"/>
      <path id="Path_1240" data-name="Path 1240" d="M1395.111,139.04a25.4,25.4,0,1,1,23.312-42.2h0a25.4,25.4,0,0,1-19.716,42.592,26.959,26.959,0,0,1-3.6-.4Zm8.78-47.286a21.694,21.694,0,0,0-3.226-.357,22.625,22.625,0,1,0,3.226.357Z" transform="translate(442.977 33.317)" fill="#83d4cf"/>
      <path id="Path_1241" data-name="Path 1241" d="M976.229,57.271a1.323,1.323,0,0,1-.582-.251L954.873,40.914a1.322,1.322,0,0,1-.5-1.137l1.8-28.879a1.322,1.322,0,0,1,2.155-.965L979.1,25.985a1.322,1.322,0,0,1,.516,1.137L977.8,56a1.4,1.4,0,0,1-1.573,1.269ZM957.082,39.208,975.29,53.357,976.9,27.7,958.682,13.6Z" transform="translate(307.61 3.105)" fill="#83d4cf"/>
      <path id="Path_1242" data-name="Path 1242" d="M955.422,59.183a1.2,1.2,0,0,1-.582-.251L934.133,42.839a1.322,1.322,0,0,1,.41-2.34l27.5-8.952a1.323,1.323,0,0,1,1.23.212l20.708,16.106a1.365,1.365,0,0,1-.4,2.367L956.07,59.143A1.322,1.322,0,0,1,955.422,59.183ZM937.7,42.27,955.912,56.38l24.436-7.934L962.14,34.31Z" transform="translate(300.912 10.145)" fill="#83d4cf"/>
      <path id="Path_1243" data-name="Path 1243" d="M934.688,50.14a1.322,1.322,0,0,1-1.1-1.4l2.169-29.752a1.322,1.322,0,0,1,.952-1.19L963.819,9.7a1.339,1.339,0,0,1,.767,2.565L938.364,20.1l-2.1,28.827a1.322,1.322,0,0,1-1.428,1.243Z" transform="translate(300.912 3.109)" fill="#83d4cf"/>
      <path id="Path_1244" data-name="Path 1244" d="M1033.049,421.434h-.079l-42.314-10.327a1.322,1.322,0,0,1-.582-2.3l29.382-26.552a1.322,1.322,0,0,1,1.216-.3l42.314,10.327a1.322,1.322,0,0,1,.569,2.288l-29.369,26.552A1.322,1.322,0,0,1,1033.049,421.434ZM993.7,409.1l39.22,9.547,26.975-24.383-39.207-9.587Z" transform="translate(318.969 145.718)" fill="#83d4cf"/>
      <path id="Path_1245" data-name="Path 1245" d="M1028.731,462.083h-.212a1.323,1.323,0,0,1-.873-1.071l-6-43.187a1.322,1.322,0,0,1,.423-1.177l29.382-26.565a1.323,1.323,0,0,1,2.2.807l6,43.187a1.4,1.4,0,0,1-.423,1.177l-29.382,26.552A1.322,1.322,0,0,1,1028.731,462.083Zm-4.35-43.967,5.567,39.974,26.975-24.384-5.554-39.987Z" transform="translate(329.29 148.244)" fill="#83d4cf"/>
      <path id="Path_1246" data-name="Path 1246" d="M1039.06,458.076h-.092l-43.544-11.121a1.322,1.322,0,0,1-1-1.137L989.592,403.5a1.338,1.338,0,1,1,2.658-.3l4.721,41.441,42.671,10.856a1.353,1.353,0,1,1-.569,2.645Z" transform="translate(318.96 152.198)" fill="#83d4cf"/>
      <path id="Path_1247" data-name="Path 1247" d="M1226.478,180.076a1.316,1.316,0,0,1-1.071-1.574l7.934-45.091a1.323,1.323,0,0,1,.78-.992l46.175-20.655a1.326,1.326,0,0,1,1.812,1.494l-7.934,45.1a1.322,1.322,0,0,1-.78.979L1227.219,180a1.229,1.229,0,0,1-.741.079Zm9.349-45.474-7.352,41.917,43.226-19.332,7.352-41.917Z" transform="translate(422.025 -41.712)" fill="#83d4cf"/>
      <path id="Path_1248" data-name="Path 1248" d="M1235.343,183.611a1.2,1.2,0,0,1-.688-.357l-36.377-35.147a1.323,1.323,0,0,1-.384-1.19l7.934-45.091a1.322,1.322,0,0,1,2.248-.741l36.364,35.16a1.323,1.323,0,0,1,.4,1.19l-7.934,45.091a1.322,1.322,0,0,1-1.56,1.084Zm-34.658-36.932,34.063,32.912,7.352-41.917-34.05-32.912Z" transform="translate(413.159 -45.699)" fill="#83d4cf"/>
      <path id="Path_1249" data-name="Path 1249" d="M1204.969,108.5a1.338,1.338,0,0,1-.291-2.552l47.815-20.8a1.322,1.322,0,0,1,1.481.278l34.7,35.266a1.337,1.337,0,1,1-1.9,1.878l-34.076-34.579-46.982,20.443a1.4,1.4,0,0,1-.741.066Z" transform="translate(415.09 -52.015)" fill="#83d4cf"/>
      <path id="Path_1250" data-name="Path 1250" d="M1351.416,28.117l-.238-.066-23.5-8.82a1.337,1.337,0,1,1,.952-2.5l23.551,8.82a1.33,1.33,0,1,1-.7,2.565Z" transform="translate(429.035 -15.812)" fill="#fff"/>
      <path id="Path_1251" data-name="Path 1251" d="M1387.013,41.47l-.225-.066-23.577-8.833a1.335,1.335,0,1,1,.939-2.5l23.5,8.82a1.337,1.337,0,0,1-.635,2.578Z" transform="translate(440.485 -11.512)" fill="#fff"/>
      <path id="Path_1252" data-name="Path 1252" d="M1344.557,61.684l-.225-.066a1.322,1.322,0,0,1-.78-1.719l8.82-23.5a1.335,1.335,0,0,1,2.5.939l-8.82,23.5A1.322,1.322,0,0,1,1344.557,61.684Z" transform="translate(434.399 -9.723)" fill="#fff"/>
      <path id="Path_1253" data-name="Path 1253" d="M1357.911,26.142h-.238a1.322,1.322,0,0,1-.78-1.732l8.82-23.537a1.341,1.341,0,0,1,2.512.939L1359.392,25.3a1.322,1.322,0,0,1-1.481.846Z" transform="translate(438.698 -21.176)" fill="#fff"/>
      <path id="Path_1254" data-name="Path 1254" d="M1317.509,435.558l-.251-.066a1.323,1.323,0,0,1-.754-1.732l9.256-23.352a1.336,1.336,0,1,1,2.486.979l-9.256,23.352A1.322,1.322,0,0,1,1317.509,435.558Z" transform="translate(424.301 154.63)" fill="#fff"/>
      <path id="Path_1255" data-name="Path 1255" d="M1331.419,400.221a1.019,1.019,0,0,1-.251,0,1.322,1.322,0,0,1-.753-1.732l9.256-23.352a1.336,1.336,0,1,1,2.486.978l-9.256,23.352A1.322,1.322,0,0,1,1331.419,400.221Z" transform="translate(428.785 143.263)" fill="#fff"/>
      <path id="Path_1256" data-name="Path 1256" d="M1360.118,416.059l-.251-.079-23.352-9.19a1.338,1.338,0,1,1,.992-2.486l23.339,9.256a1.333,1.333,0,1,1-.727,2.565Z" transform="translate(430.512 152.905)" fill="#fff"/>
      <path id="Path_1257" data-name="Path 1257" d="M1324.81,402.164a1.4,1.4,0,0,1-.251-.079l-23.352-9.256a1.336,1.336,0,1,1,.979-2.486l23.352,9.256a1.333,1.333,0,0,1-.727,2.565Z" transform="translate(419.129 148.407)" fill="#fff"/>
      <rect id="Rectangle_36" data-name="Rectangle 36" width="2.671" height="20.152" transform="translate(1437.909 441.011) rotate(-21.58)" fill="#d02a97"/>
      <rect id="Rectangle_37" data-name="Rectangle 37" width="2.671" height="20.152" transform="translate(1452.716 479.702) rotate(-21.58)" fill="#d02a97"/>
      <rect id="Rectangle_38" data-name="Rectangle 38" width="20.152" height="2.671" transform="translate(1421.641 479.213) rotate(-21.59)" fill="#d02a97"/>
      <rect id="Rectangle_39" data-name="Rectangle 39" width="20.152" height="2.671" transform="translate(1459.125 463.912) rotate(-21.59)" fill="#d02a97"/>
      <path id="Path_1258" data-name="Path 1258" d="M1179.845,87.043,1142.82,26.48l57.865-10.75ZM1147.117,28.4l31.855,52.1,17.9-61.342Z" transform="translate(359.351 -47.397)" fill="#d02a97"/>
      <path id="Path_1259" data-name="Path 1259" d="M1183.4,469.38h0a1.322,1.322,0,0,1-.939-.82l-23.8-61.911a1.345,1.345,0,0,1,1.375-1.838l83.306,8.344a1.322,1.322,0,0,1,.754,2.327l-59.5,53.567A1.322,1.322,0,0,1,1183.4,469.38Zm-21.62-61.673,22.479,58.063,55.788-50.248Z" transform="translate(373.426 153.098)" fill="#83d4cf"/>
      <path id="Path_1260" data-name="Path 1260" d="M1327.86,266.252l8.093-40.912,41.494,32.41Zm9.865-36.139-6.493,32.846,39.815-6.823Z" transform="translate(427.993 84.469)" fill="#d02a97"/>
      <path id="Path_1261" data-name="Path 1261" d="M1191.924,334.385a38.03,38.03,0,1,1,34.9-63.154h0a38.017,38.017,0,0,1-29.514,63.749,36.237,36.237,0,0,1-5.382-.595Zm13.355-72.132a35.306,35.306,0,1,0,19.571,10.79h0a35.147,35.147,0,0,0-19.57-10.764Z" transform="translate(428.15 159.511)" fill="#fff"/>
      <path id="Path_1262" data-name="Path 1262" d="M863.934,473.512a25.4,25.4,0,1,1,3.557.4A24.394,24.394,0,0,1,863.934,473.512Zm8.7-47.3a20.816,20.816,0,0,0-3.174-.357,22.73,22.73,0,1,0,3.174.357Z" transform="translate(271.752 159.003)" fill="#d02a97"/>
    </g>
  </g>
</svg>
