<svg xmlns="http://www.w3.org/2000/svg" width="100" height="68.75" viewBox="0 0 100 68.75">
  <g id="cloud-arrow-down" transform="translate(0 -12.5)">
    <path id="Path_12" data-name="Path 12" d="M27.537,20.887A34.563,34.563,0,0,1,50,12.5c16.813,0,30.769,12.5,32.288,28.619A20.349,20.349,0,0,1,100,61.081c0,11.225-9.362,20.169-20.706,20.169H23.631C10.675,81.25,0,71.037,0,58.237A23.168,23.168,0,0,1,18.388,35.781c.894-5.394,4.362-10.769,9.15-14.894Zm4.081,4.731c-4.731,4.081-7.206,9-7.206,12.85v2.8l-2.781.306A17,17,0,0,0,6.25,58.237C6.25,67.406,13.938,75,23.631,75H79.294a13.932,13.932,0,1,0,0-27.844H76.169V44.031C76.175,30.156,64.55,18.75,50,18.75a28.313,28.313,0,0,0-18.381,6.875Z" fill="#fff" fill-rule="evenodd"/>
    <path id="Path_13" data-name="Path 13" d="M47.788,67.837a3.125,3.125,0,0,0,4.425,0l12.5-12.5a3.129,3.129,0,1,0-4.425-4.425l-7.163,7.169V34.375a3.125,3.125,0,0,0-6.25,0V58.081l-7.163-7.168a3.129,3.129,0,1,0-4.425,4.425l12.5,12.5Z" fill="#fff" fill-rule="evenodd"/>
  </g>
</svg>
