<svg xmlns="http://www.w3.org/2000/svg" width="100.004" height="100.004" viewBox="0 0 100.004 100.004">
  <path id="phone-msg" d="M94.531,69.531a5.436,5.436,0,0,1,3.776,1.563A5.1,5.1,0,0,1,100,75V94.531A5.813,5.813,0,0,1,94.531,100,92.955,92.955,0,0,1,47,87.37,93.278,93.278,0,0,1,12.63,53,92.955,92.955,0,0,1,0,5.469,5.229,5.229,0,0,1,1.693,1.693,5.229,5.229,0,0,1,5.469,0H25a5.093,5.093,0,0,1,3.906,1.693,5.442,5.442,0,0,1,1.563,3.776,62.176,62.176,0,0,0,3.125,19.792,5.325,5.325,0,0,1-1.3,5.729L20.052,43.23A81.7,81.7,0,0,0,56.771,79.949l12.24-12.24a5.325,5.325,0,0,1,5.729-1.3,62.176,62.176,0,0,0,19.792,3.125ZM50,0h50V38.8H66.667L50,55.469Z" transform="translate(0.003 0.001)" fill="#fff"/>
</svg>
