<svg xmlns="http://www.w3.org/2000/svg" width="88.891" height="88.889" viewBox="0 0 88.891 88.889">
  <g id="settings-line" transform="translate(-5.555 -5.557)">
    <path id="Path_10" data-name="Path 10" d="M50.278,30.556a19.324,19.324,0,1,0,13.785,5.66,19.444,19.444,0,0,0-13.785-5.66Zm0,33.333a13.754,13.754,0,1,1,9.861-4.028,13.889,13.889,0,0,1-9.861,4.028Z" fill="#fff"/>
    <path id="Path_11" data-name="Path 11" d="M91.111,40.833l-7.778-2.5-1.667-4.167,3.889-7.222a4.671,4.671,0,0,0-.833-5.278L78.055,15a4.67,4.67,0,0,0-5.278-.833l-7.222,3.889-4.167-1.667-2.5-7.778a4.512,4.512,0,0,0-4.166-3.054H45.278A3.9,3.9,0,0,0,41.389,8.89l-2.5,7.778a12.255,12.255,0,0,0-4.444,1.667l-7.223-3.89a4.671,4.671,0,0,0-5.278.833l-6.666,6.667a4.67,4.67,0,0,0-.833,5.278l3.611,6.944c-.556,1.389-1.111,3.056-1.667,4.444l-7.778,2.5a4.515,4.515,0,0,0-3.056,4.167v9.444a4.425,4.425,0,0,0,3.333,4.167l7.778,2.5,1.667,4.167-3.889,7.222a4.671,4.671,0,0,0,.833,5.278l6.667,6.667a4.67,4.67,0,0,0,5.278.833l7.222-3.889,4.167,1.667,2.5,8.056a4.515,4.515,0,0,0,4.167,3.056h9.444a4.516,4.516,0,0,0,4.167-3.056l2.5-8.056,4.167-1.667,7.222,3.889a4.671,4.671,0,0,0,5.278-.833l6.667-6.667a4.67,4.67,0,0,0,.833-5.278l-3.889-7.222,1.667-4.167,8.056-2.5a4.515,4.515,0,0,0,3.056-4.167V45.277a4.754,4.754,0,0,0-3.333-4.444ZM88.889,53.889l-10,3.056-.278,1.389-2.5,5.833-.833,1.389,5,9.167-5.556,5.556-9.167-5-1.389.833a26.4,26.4,0,0,1-5.833,2.5l-1.389.278-3.056,10H46.11l-3.056-10-1.389-.278-5.833-2.5-1.389-.833-9.167,5L19.72,74.723l5-9.167-.833-1.389a26.4,26.4,0,0,1-2.5-5.833l-.278-1.389-10-3.056V46.111l9.444-2.778.556-1.389a23.593,23.593,0,0,1,2.5-6.111l.833-1.389L19.72,25.277l5.556-5.556,8.889,5,1.389-.833a23.593,23.593,0,0,1,6.111-2.5l1.389-.556,3.055-9.721h7.778l3.056,9.722,1.389.556a26.4,26.4,0,0,1,5.833,2.5l1.389.833,9.167-5,5.556,5.556-5,9.167.833,1.389a26.4,26.4,0,0,1,2.5,5.833l.278,1.389,10,3.056V53.89Z" fill="#fff"/>
  </g>
</svg>
